<?xml version="1.0" encoding="UTF-8" standalone="no"?>
<!DOCTYPE svg PUBLIC "-//W3C//DTD SVG 1.1//EN"
 "http://www.w3.org/Graphics/SVG/1.1/DTD/svg11.dtd">
<!-- Generated by graphviz version 2.36.0 (20140111.2315)
 -->
<!-- Title: arlo Pages: 1 -->
<svg width="5618pt" height="478pt"
 viewBox="0.00 0.00 5618.00 478.00" xmlns="http://www.w3.org/2000/svg" xmlns:xlink="http://www.w3.org/1999/xlink">
<g id="graph0" class="graph" transform="scale(1 1) rotate(0) translate(4 474)">
<title>arlo</title>
<polygon fill="white" stroke="none" points="-4,4 -4,-474 5614,-474 5614,4 -4,4"/>
<!--   -->
<g id="node1" class="node"><title> </title>
<ellipse fill="none" stroke="black" cx="841" cy="-452" rx="27" ry="18"/>
<text text-anchor="middle" x="841" y="-447.8" font-family="Times,serif" font-size="14.00"> </text>
</g>
<!--    -->
<g id="node2" class="node"><title>  </title>
<ellipse fill="none" stroke="black" cx="919" cy="-452" rx="32.2616" ry="18"/>
<text text-anchor="middle" x="919" y="-447.8" font-family="Helvetica,sans-Serif" font-size="14.00">  </text>
</g>
<!-- user -->
<g id="node3" class="node"><title>user</title>
<polygon fill="none" stroke="black" points="2381,-470 2327,-470 2327,-434 2381,-434 2381,-470"/>
<text text-anchor="middle" x="2354" y="-448.3" font-family="Helvetica,sans-Serif" font-size="14.00">user</text>
</g>
<!-- userId_pk -->
<g id="node22" class="node"><title>userId_pk</title>
<ellipse fill="none" stroke="black" cx="2397" cy="-364" rx="35.1455" ry="18"/>
<text text-anchor="start" x="2378" y="-361.3" font-family="Helvetica,sans-Serif" text-decoration="underline" font-size="14.00">userId</text>
</g>
<!-- user&#45;&gt;userId_pk -->
<g id="edge39" class="edge"><title>user&#45;&gt;userId_pk</title>
<path fill="none" stroke="black" d="M2362.7,-433.597C2368.88,-421.234 2377.28,-404.434 2384.22,-390.554"/>
<polygon fill="black" stroke="black" points="2388.75,-381.502 2388.3,-392.459 2386.51,-385.974 2384.28,-390.446 2384.28,-390.446 2384.28,-390.446 2386.51,-385.974 2380.25,-388.434 2388.75,-381.502 2388.75,-381.502"/>
</g>
<!-- is -->
<g id="node45" class="node"><title>is</title>
<polygon fill="none" stroke="black" points="1373,-382 1346,-364 1373,-346 1400,-364 1373,-382"/>
<text text-anchor="middle" x="1373" y="-360.3" font-family="Helvetica,sans-Serif" font-size="14.00">is</text>
</g>
<!-- user&#45;&gt;is -->
<g id="edge1" class="edge"><title>user&#45;&gt;is</title>
<path fill="none" stroke="black" d="M2326.7,-449.29C2176.36,-439.838 1454.59,-393.983 1409,-382 1404.71,-380.873 1400.32,-379.244 1396.13,-377.436"/>
<polygon fill="black" stroke="black" points="1386.91,-373.04 1397.87,-373.28 1391.42,-375.191 1395.93,-377.342 1395.93,-377.342 1395.93,-377.342 1391.42,-375.191 1394,-381.404 1386.91,-373.04 1386.91,-373.04"/>
<text text-anchor="middle" x="1822" y="-404.3" font-family="Helvetica,sans-Serif" font-size="14.00">1</text>
</g>
<!-- hash -->
<g id="node46" class="node"><title>hash</title>
<ellipse fill="none" stroke="black" cx="2480" cy="-364" rx="29.3479" ry="18"/>
<text text-anchor="middle" x="2480" y="-360.3" font-family="Helvetica,sans-Serif" font-size="14.00">hash</text>
</g>
<!-- user&#45;&gt;hash -->
<g id="edge40" class="edge"><title>user&#45;&gt;hash</title>
<path fill="none" stroke="black" d="M2379.2,-433.803C2400.4,-419.328 2430.68,-398.661 2452.51,-383.761"/>
<polygon fill="black" stroke="black" points="2461.01,-377.962 2455.29,-387.317 2456.88,-380.781 2452.75,-383.6 2452.75,-383.6 2452.75,-383.6 2456.88,-380.781 2450.21,-379.883 2461.01,-377.962 2461.01,-377.962"/>
</g>
<!-- salt -->
<g id="node47" class="node"><title>salt</title>
<ellipse fill="none" stroke="black" cx="2555" cy="-364" rx="27" ry="18"/>
<text text-anchor="middle" x="2555" y="-360.3" font-family="Helvetica,sans-Serif" font-size="14.00">salt</text>
</g>
<!-- user&#45;&gt;salt -->
<g id="edge41" class="edge"><title>user&#45;&gt;salt</title>
<path fill="none" stroke="black" d="M2381.1,-439.912C2413.72,-426.498 2470.08,-403.085 2518,-382 2520.05,-381.098 2522.16,-380.159 2524.28,-379.205"/>
<polygon fill="black" stroke="black" points="2533.53,-375.007 2526.29,-383.238 2528.98,-377.073 2524.43,-379.14 2524.43,-379.14 2524.43,-379.14 2528.98,-377.073 2522.57,-375.043 2533.53,-375.007 2533.53,-375.007"/>
</g>
<!-- activation -->
<g id="node48" class="node"><title>activation</title>
<ellipse fill="none" stroke="black" cx="2212" cy="-364" rx="48.1437" ry="18"/>
<text text-anchor="middle" x="2212" y="-360.3" font-family="Helvetica,sans-Serif" font-size="14.00">activation</text>
</g>
<!-- user&#45;&gt;activation -->
<g id="edge42" class="edge"><title>user&#45;&gt;activation</title>
<path fill="none" stroke="black" d="M2326.96,-434.622C2303.59,-420.472 2269.76,-399.981 2244.84,-384.892"/>
<polygon fill="black" stroke="black" points="2236.1,-379.599 2246.99,-380.93 2240.38,-382.189 2244.66,-384.779 2244.66,-384.779 2244.66,-384.779 2240.38,-382.189 2242.33,-388.628 2236.1,-379.599 2236.1,-379.599"/>
</g>
<!-- email -->
<g id="node49" class="node"><title>email</title>
<ellipse fill="none" stroke="black" cx="2311" cy="-364" rx="32.2457" ry="18"/>
<text text-anchor="middle" x="2311" y="-360.3" font-family="Helvetica,sans-Serif" font-size="14.00">email</text>
</g>
<!-- user&#45;&gt;email -->
<g id="edge43" class="edge"><title>user&#45;&gt;email</title>
<path fill="none" stroke="black" d="M2345.3,-433.597C2339.12,-421.234 2330.72,-404.434 2323.78,-390.554"/>
<polygon fill="black" stroke="black" points="2319.25,-381.502 2327.75,-388.434 2321.49,-385.974 2323.72,-390.446 2323.72,-390.446 2323.72,-390.446 2321.49,-385.974 2319.7,-392.459 2319.25,-381.502 2319.25,-381.502"/>
</g>
<!-- profile -->
<g id="node4" class="node"><title>profile</title>
<polygon fill="none" stroke="black" points="1139,-294 1085,-294 1085,-258 1139,-258 1139,-294"/>
<text text-anchor="middle" x="1112" y="-272.3" font-family="Helvetica,sans-Serif" font-size="14.00">profile</text>
</g>
<!-- profileId_pk -->
<g id="node23" class="node"><title>profileId_pk</title>
<ellipse fill="none" stroke="black" cx="915" cy="-188" rx="42.3701" ry="18"/>
<text text-anchor="start" x="890.5" y="-185.3" font-family="Helvetica,sans-Serif" text-decoration="underline" font-size="14.00">profileId</text>
</g>
<!-- profile&#45;&gt;profileId_pk -->
<g id="edge44" class="edge"><title>profile&#45;&gt;profileId_pk</title>
<path fill="none" stroke="black" d="M1084.61,-263.042C1050.3,-248.065 991.351,-222.331 952.776,-205.491"/>
<polygon fill="black" stroke="black" points="943.435,-201.413 954.4,-201.29 948.017,-203.414 952.6,-205.414 952.6,-205.414 952.6,-205.414 948.017,-203.414 950.799,-209.538 943.435,-201.413 943.435,-201.413"/>
</g>
<!-- userId_fk -->
<g id="node36" class="node"><title>userId_fk</title>
<ellipse fill="none" stroke="black" cx="1010" cy="-188" rx="35.1455" ry="18"/>
<text text-anchor="start" x="991" y="-185.3" font-family="Helvetica,sans-Serif" text-decoration="underline" font-size="14.00">userId</text>
</g>
<!-- profile&#45;&gt;userId_fk -->
<g id="edge48" class="edge"><title>profile&#45;&gt;userId_fk</title>
<path fill="none" stroke="black" d="M1091.36,-257.597C1075.25,-244.015 1052.79,-225.077 1035.55,-210.539"/>
<polygon fill="black" stroke="black" points="1027.55,-203.799 1038.1,-206.805 1031.38,-207.022 1035.2,-210.245 1035.2,-210.245 1035.2,-210.245 1031.38,-207.022 1032.3,-213.686 1027.55,-203.799 1027.55,-203.799"/>
</g>
<!-- has -->
<g id="node44" class="node"><title>has</title>
<polygon fill="none" stroke="black" points="1475,-206 1440.61,-188 1475,-170 1509.39,-188 1475,-206"/>
<text text-anchor="middle" x="1475" y="-184.3" font-family="Helvetica,sans-Serif" font-size="14.00">has</text>
</g>
<!-- profile&#45;&gt;has -->
<g id="edge11" class="edge"><title>profile&#45;&gt;has</title>
<path fill="none" stroke="black" d="M1139.22,-264.628C1146.24,-262.209 1153.84,-259.813 1161,-258 1209.02,-245.836 1225.09,-258.605 1271,-240 1282.54,-235.323 1282.53,-228.842 1294,-224 1340.49,-204.375 1398.38,-195.648 1435.98,-191.838"/>
<polygon fill="black" stroke="black" points="1446.03,-190.889 1436.49,-196.31 1441.05,-191.36 1436.07,-191.83 1436.07,-191.83 1436.07,-191.83 1441.05,-191.36 1435.65,-187.35 1446.03,-190.889 1446.03,-190.889"/>
<text text-anchor="middle" x="1300.5" y="-228.3" font-family="Helvetica,sans-Serif" font-size="14.00">m</text>
</g>
<!-- firstName -->
<g id="node50" class="node"><title>firstName</title>
<ellipse fill="none" stroke="black" cx="1112" cy="-188" rx="48.6179" ry="18"/>
<text text-anchor="middle" x="1112" y="-184.3" font-family="Helvetica,sans-Serif" font-size="14.00">firstName</text>
</g>
<!-- profile&#45;&gt;firstName -->
<g id="edge45" class="edge"><title>profile&#45;&gt;firstName</title>
<path fill="none" stroke="black" d="M1112,-257.597C1112,-245.746 1112,-229.817 1112,-216.292"/>
<polygon fill="black" stroke="black" points="1112,-206.084 1116.5,-216.084 1112,-211.084 1112,-216.084 1112,-216.084 1112,-216.084 1112,-211.084 1107.5,-216.084 1112,-206.084 1112,-206.084"/>
</g>
<!-- lastName -->
<g id="node51" class="node"><title>lastName</title>
<ellipse fill="none" stroke="black" cx="1227" cy="-188" rx="48.1437" ry="18"/>
<text text-anchor="middle" x="1227" y="-184.3" font-family="Helvetica,sans-Serif" font-size="14.00">lastName</text>
</g>
<!-- profile&#45;&gt;lastName -->
<g id="edge46" class="edge"><title>profile&#45;&gt;lastName</title>
<path fill="none" stroke="black" d="M1135,-257.803C1153.15,-244.225 1178.59,-225.2 1198.12,-210.596"/>
<polygon fill="black" stroke="black" points="1206.36,-204.435 1201.05,-214.027 1202.36,-207.429 1198.35,-210.424 1198.35,-210.424 1198.35,-210.424 1202.36,-207.429 1195.66,-206.82 1206.36,-204.435 1206.36,-204.435"/>
</g>
<!-- profileImagePath -->
<g id="node52" class="node"><title>profileImagePath</title>
<ellipse fill="none" stroke="black" cx="777" cy="-188" rx="77.0154" ry="18"/>
<text text-anchor="middle" x="777" y="-184.3" font-family="Helvetica,sans-Serif" font-size="14.00">profileImagePath</text>
</g>
<!-- profile&#45;&gt;profileImagePath -->
<g id="edge47" class="edge"><title>profile&#45;&gt;profileImagePath</title>
<path fill="none" stroke="black" d="M1084.87,-268.035C1031.16,-254.248 910.179,-223.189 836.881,-204.372"/>
<polygon fill="black" stroke="black" points="826.867,-201.802 837.672,-199.93 831.71,-203.045 836.553,-204.288 836.553,-204.288 836.553,-204.288 831.71,-203.045 835.434,-208.647 826.867,-201.802 826.867,-201.802"/>
</g>
<!-- queue -->
<g id="node5" class="node"><title>queue</title>
<polygon fill="none" stroke="black" points="1024,-470 970,-470 970,-434 1024,-434 1024,-470"/>
<text text-anchor="middle" x="997" y="-448.3" font-family="Helvetica,sans-Serif" font-size="14.00">queue</text>
</g>
<!-- queueId_pk -->
<g id="node24" class="node"><title>queueId_pk</title>
<ellipse fill="none" stroke="black" cx="1032" cy="-364" rx="42.3701" ry="18"/>
<text text-anchor="start" x="1007.5" y="-361.3" font-family="Helvetica,sans-Serif" text-decoration="underline" font-size="14.00">queueId</text>
</g>
<!-- queue&#45;&gt;queueId_pk -->
<g id="edge49" class="edge"><title>queue&#45;&gt;queueId_pk</title>
<path fill="none" stroke="black" d="M1004.08,-433.597C1009.03,-421.432 1015.73,-404.971 1021.33,-391.223"/>
<polygon fill="black" stroke="black" points="1025.17,-381.792 1025.56,-392.751 1023.28,-386.423 1021.4,-391.055 1021.4,-391.055 1021.4,-391.055 1023.28,-386.423 1017.23,-389.358 1025.17,-381.792 1025.17,-381.792"/>
</g>
<!-- queue&#45;&gt;has -->
<g id="edge15" class="edge"><title>queue&#45;&gt;has</title>
<path fill="none" stroke="black" d="M987.463,-433.922C976.373,-411.513 961.872,-371.989 981,-346 1027.08,-283.391 1077.69,-327.161 1148,-294 1174.42,-281.537 1175.82,-268.714 1203,-258 1246.64,-240.798 1262.86,-255.876 1307,-240 1320.49,-235.149 1321.7,-229.344 1335,-224 1369.58,-210.107 1411.23,-200.543 1440.07,-194.968"/>
<polygon fill="black" stroke="black" points="1450.08,-193.093 1441.08,-199.357 1445.16,-194.014 1440.25,-194.934 1440.25,-194.934 1440.25,-194.934 1445.16,-194.014 1439.42,-190.511 1450.08,-193.093 1450.08,-193.093"/>
<text text-anchor="middle" x="1035.5" y="-316.3" font-family="Helvetica,sans-Serif" font-size="14.00">m</text>
</g>
<!-- queue&#45;&gt;has -->
<g id="edge31" class="edge"><title>queue&#45;&gt;has</title>
<path fill="none" stroke="black" d="M1019.32,-433.905C1036.93,-420.23 1061.94,-400.371 1083,-382 1100.53,-366.708 1101.51,-358.699 1121,-346 1138.36,-334.691 1144.99,-336.228 1164,-328 1269.77,-282.233 1394.72,-225.6 1448.36,-201.163"/>
<polygon fill="black" stroke="black" points="1457.53,-196.985 1450.3,-205.227 1452.98,-199.059 1448.43,-201.133 1448.43,-201.133 1448.43,-201.133 1452.98,-199.059 1446.56,-197.038 1457.53,-196.985 1457.53,-196.985"/>
<text text-anchor="middle" x="1206.5" y="-316.3" font-family="Helvetica,sans-Serif" font-size="14.00">m</text>
</g>
<!-- queue&#45;&gt;is -->
<g id="edge13" class="edge"><title>queue&#45;&gt;is</title>
<path fill="none" stroke="black" d="M1024.02,-447.769C1082.33,-440.311 1223.82,-419.594 1337,-382 1341.13,-380.627 1345.41,-378.901 1349.51,-377.078"/>
<polygon fill="black" stroke="black" points="1358.62,-372.769 1351.5,-381.115 1354.1,-374.908 1349.58,-377.047 1349.58,-377.047 1349.58,-377.047 1354.1,-374.908 1347.65,-372.98 1358.62,-372.769 1358.62,-372.769"/>
<text text-anchor="middle" x="1280.5" y="-404.3" font-family="Helvetica,sans-Serif" font-size="14.00">m</text>
</g>
<!-- queueName -->
<g id="node53" class="node"><title>queueName</title>
<ellipse fill="none" stroke="black" cx="736" cy="-364" rx="59.2173" ry="18"/>
<text text-anchor="middle" x="736" y="-360.3" font-family="Helvetica,sans-Serif" font-size="14.00">queueName</text>
</g>
<!-- queue&#45;&gt;queueName -->
<g id="edge50" class="edge"><title>queue&#45;&gt;queueName</title>
<path fill="none" stroke="black" d="M969.693,-437.966C966.452,-436.565 963.17,-435.21 960,-434 902.448,-412.025 834.628,-391.91 788.811,-379.14"/>
<polygon fill="black" stroke="black" points="779.094,-376.45 789.932,-374.781 783.913,-377.784 788.731,-379.118 788.731,-379.118 788.731,-379.118 783.913,-377.784 787.531,-383.455 779.094,-376.45 779.094,-376.45"/>
</g>
<!-- creationDate -->
<g id="node54" class="node"><title>creationDate</title>
<ellipse fill="none" stroke="black" cx="874" cy="-364" rx="60.1672" ry="18"/>
<text text-anchor="middle" x="874" y="-360.3" font-family="Helvetica,sans-Serif" font-size="14.00">creationDate</text>
</g>
<!-- queue&#45;&gt;creationDate -->
<g id="edge51" class="edge"><title>queue&#45;&gt;creationDate</title>
<path fill="none" stroke="black" d="M972.405,-433.803C952.934,-420.189 925.631,-401.1 904.723,-386.481"/>
<polygon fill="black" stroke="black" points="896.482,-380.719 907.256,-382.761 900.58,-383.584 904.677,-386.449 904.677,-386.449 904.677,-386.449 900.58,-383.584 902.099,-390.137 896.482,-380.719 896.482,-380.719"/>
</g>
<!-- video -->
<g id="node6" class="node"><title>video</title>
<polygon fill="none" stroke="black" points="1647,-114 1593,-114 1593,-78 1647,-78 1647,-114"/>
<text text-anchor="middle" x="1620" y="-92.3" font-family="Helvetica,sans-Serif" font-size="14.00">video</text>
</g>
<!-- videoId_pk -->
<g id="node25" class="node"><title>videoId_pk</title>
<ellipse fill="none" stroke="black" cx="1492" cy="-18" rx="38.4949" ry="18"/>
<text text-anchor="start" x="1470" y="-15.3" font-family="Helvetica,sans-Serif" text-decoration="underline" font-size="14.00">videoId</text>
</g>
<!-- video&#45;&gt;videoId_pk -->
<g id="edge52" class="edge"><title>video&#45;&gt;videoId_pk</title>
<path fill="none" stroke="black" d="M1592.85,-78.8824C1572.56,-66.8346 1544.77,-50.3351 1523.5,-37.7058"/>
<polygon fill="black" stroke="black" points="1514.83,-32.5544 1525.72,-33.7905 1519.13,-35.1071 1523.43,-37.6598 1523.43,-37.6598 1523.43,-37.6598 1519.13,-35.1071 1521.13,-41.5292 1514.83,-32.5544 1514.83,-32.5544"/>
</g>
<!-- releaseDateId_fk -->
<g id="node35" class="node"><title>releaseDateId_fk</title>
<ellipse fill="none" stroke="black" cx="1615" cy="-18" rx="65.4659" ry="18"/>
<text text-anchor="start" x="1572.5" y="-15.3" font-family="Helvetica,sans-Serif" text-decoration="underline" font-size="14.00">releaseDateId</text>
</g>
<!-- video&#45;&gt;releaseDateId_fk -->
<g id="edge70" class="edge"><title>video&#45;&gt;releaseDateId_fk</title>
<path fill="none" stroke="black" d="M1618.87,-77.7544C1618.25,-68.426 1617.48,-56.6906 1616.79,-46.1653"/>
<polygon fill="black" stroke="black" points="1616.13,-36.1773 1621.28,-45.8603 1616.46,-41.1665 1616.79,-46.1558 1616.79,-46.1558 1616.79,-46.1558 1616.46,-41.1665 1612.3,-46.4512 1616.13,-36.1773 1616.13,-36.1773"/>
</g>
<!-- video&#45;&gt;has -->
<g id="edge3" class="edge"><title>video&#45;&gt;has</title>
<path fill="none" stroke="black" d="M1592.9,-98.3696C1564.47,-101.224 1520.21,-109.891 1493,-136 1486.18,-142.541 1481.94,-151.82 1479.31,-160.673"/>
<polygon fill="black" stroke="black" points="1476.9,-170.681 1474.87,-159.905 1478.07,-165.821 1479.24,-160.96 1479.24,-160.96 1479.24,-160.96 1478.07,-165.821 1483.61,-162.015 1476.9,-170.681 1476.9,-170.681"/>
<text text-anchor="middle" x="1497" y="-140.3" font-family="Helvetica,sans-Serif" font-size="14.00">1</text>
</g>
<!-- video&#45;&gt;has -->
<g id="edge5" class="edge"><title>video&#45;&gt;has</title>
<path fill="none" stroke="black" d="M1592.85,-104.652C1572.75,-111.09 1545.29,-121.567 1524,-136 1511.49,-144.48 1499.68,-156.596 1490.79,-166.891"/>
<polygon fill="black" stroke="black" points="1484.33,-174.653 1487.27,-164.088 1487.53,-170.81 1490.73,-166.967 1490.73,-166.967 1490.73,-166.967 1487.53,-170.81 1494.19,-169.846 1484.33,-174.653 1484.33,-174.653"/>
<text text-anchor="middle" x="1528" y="-140.3" font-family="Helvetica,sans-Serif" font-size="14.00">1</text>
</g>
<!-- video&#45;&gt;has -->
<g id="edge7" class="edge"><title>video&#45;&gt;has</title>
<path fill="none" stroke="black" d="M1592.94,-112.844C1581.2,-119.819 1567.34,-128.189 1555,-136 1544.17,-142.855 1541.77,-145.046 1531,-152 1520.53,-158.761 1508.85,-166.092 1498.88,-172.289"/>
<polygon fill="black" stroke="black" points="1490.29,-177.613 1496.42,-168.521 1494.54,-174.98 1498.79,-172.346 1498.79,-172.346 1498.79,-172.346 1494.54,-174.98 1501.16,-176.171 1490.29,-177.613 1490.29,-177.613"/>
<text text-anchor="middle" x="1559" y="-140.3" font-family="Helvetica,sans-Serif" font-size="14.00">1</text>
</g>
<!-- video&#45;&gt;has -->
<g id="edge27" class="edge"><title>video&#45;&gt;has</title>
<path fill="none" stroke="black" d="M1605.14,-114.18C1594.16,-126.04 1578.35,-141.505 1562,-152 1544.59,-163.175 1523.03,-171.879 1505.73,-177.812"/>
<polygon fill="black" stroke="black" points="1496.1,-180.983 1504.19,-173.581 1500.85,-179.419 1505.6,-177.856 1505.6,-177.856 1505.6,-177.856 1500.85,-179.419 1507,-182.13 1496.1,-180.983 1496.1,-180.983"/>
<text text-anchor="middle" x="1589.5" y="-140.3" font-family="Helvetica,sans-Serif" font-size="14.00">m</text>
</g>
<!-- video&#45;&gt;has -->
<g id="edge35" class="edge"><title>video&#45;&gt;has</title>
<path fill="none" stroke="black" d="M1617.25,-114.188C1614.43,-126.368 1608.85,-142.221 1598,-152 1575.37,-172.41 1541.64,-180.995 1515.22,-184.568"/>
<polygon fill="black" stroke="black" points="1505.13,-185.742 1514.54,-180.117 1510.1,-185.164 1515.06,-184.586 1515.06,-184.586 1515.06,-184.586 1510.1,-185.164 1515.58,-189.056 1505.13,-185.742 1505.13,-185.742"/>
<text text-anchor="middle" x="1616.5" y="-140.3" font-family="Helvetica,sans-Serif" font-size="14.00">m</text>
</g>
<!-- video&#45;&gt;is -->
<g id="edge17" class="edge"><title>video&#45;&gt;is</title>
<path fill="none" stroke="black" d="M1647.23,-104.334C1674.76,-113.173 1711.24,-129.669 1696,-152 1683.62,-170.133 1666.69,-155.74 1650,-170 1622.59,-193.419 1635.12,-215.143 1609,-240 1592.03,-256.152 1453.81,-323.917 1397.12,-351.373"/>
<polygon fill="black" stroke="black" points="1387.84,-355.863 1394.88,-347.459 1392.34,-353.687 1396.84,-351.51 1396.84,-351.51 1396.84,-351.51 1392.34,-353.687 1398.8,-355.561 1387.84,-355.863 1387.84,-355.863"/>
<text text-anchor="middle" x="1628.5" y="-228.3" font-family="Helvetica,sans-Serif" font-size="14.00">m</text>
</g>
<!-- video&#45;&gt;is -->
<g id="edge21" class="edge"><title>video&#45;&gt;is</title>
<path fill="none" stroke="black" d="M1592.99,-97.2332C1527.18,-98.3019 1360.74,-104.166 1317,-136 1289.19,-156.24 1307.08,-180.495 1284,-206 1273.57,-217.53 1261.66,-210.469 1254,-224 1250.5,-230.188 1251.33,-233.408 1254,-240 1273.61,-288.465 1322.48,-328.415 1351.12,-348.66"/>
<polygon fill="black" stroke="black" points="1359.65,-354.526 1348.86,-352.565 1355.53,-351.692 1351.41,-348.858 1351.41,-348.858 1351.41,-348.858 1355.53,-351.692 1353.96,-345.15 1359.65,-354.526 1359.65,-354.526"/>
<text text-anchor="middle" x="1260.5" y="-228.3" font-family="Helvetica,sans-Serif" font-size="14.00">m</text>
</g>
<!-- videoName -->
<g id="node55" class="node"><title>videoName</title>
<ellipse fill="none" stroke="black" cx="1755" cy="-18" rx="55.3436" ry="18"/>
<text text-anchor="middle" x="1755" y="-14.3" font-family="Helvetica,sans-Serif" font-size="14.00">videoName</text>
</g>
<!-- video&#45;&gt;videoName -->
<g id="edge53" class="edge"><title>video&#45;&gt;videoName</title>
<path fill="none" stroke="black" d="M1647.32,-79.6203C1668.18,-67.8788 1697.08,-51.6073 1719.69,-38.8782"/>
<polygon fill="black" stroke="black" points="1728.64,-33.8396 1722.13,-42.6667 1724.28,-36.2925 1719.93,-38.7454 1719.93,-38.7454 1719.93,-38.7454 1724.28,-36.2925 1717.72,-34.824 1728.64,-33.8396 1728.64,-33.8396"/>
</g>
<!-- videoImagePath -->
<g id="node56" class="node"><title>videoImagePath</title>
<ellipse fill="none" stroke="black" cx="1904" cy="-18" rx="74.6146" ry="18"/>
<text text-anchor="middle" x="1904" y="-14.3" font-family="Helvetica,sans-Serif" font-size="14.00">videoImagePath</text>
</g>
<!-- video&#45;&gt;videoImagePath -->
<g id="edge54" class="edge"><title>video&#45;&gt;videoImagePath</title>
<path fill="none" stroke="black" d="M1647.23,-87.7128C1692.87,-75.5007 1785.74,-50.6483 1846.38,-34.419"/>
<polygon fill="black" stroke="black" points="1856.2,-31.7923 1847.7,-38.7246 1851.37,-33.0849 1846.54,-34.3775 1846.54,-34.3775 1846.54,-34.3775 1851.37,-33.0849 1845.37,-30.0305 1856.2,-31.7923 1856.2,-31.7923"/>
</g>
<!-- boxOffice -->
<g id="node57" class="node"><title>boxOffice</title>
<ellipse fill="none" stroke="black" cx="2045" cy="-18" rx="48.1437" ry="18"/>
<text text-anchor="middle" x="2045" y="-14.3" font-family="Helvetica,sans-Serif" font-size="14.00">boxOffice</text>
</g>
<!-- video&#45;&gt;boxOffice -->
<g id="edge55" class="edge"><title>video&#45;&gt;boxOffice</title>
<path fill="none" stroke="black" d="M1647.39,-91.794C1708.69,-84.3578 1861.42,-64.3795 1987,-36 1991.09,-35.0762 1995.31,-34.027 1999.53,-32.9138"/>
<polygon fill="black" stroke="black" points="2009.29,-30.2295 2000.84,-37.2192 2004.47,-31.5549 1999.65,-32.8802 1999.65,-32.8802 1999.65,-32.8802 2004.47,-31.5549 1998.46,-28.5412 2009.29,-30.2295 2009.29,-30.2295"/>
</g>
<!-- runtime -->
<g id="node58" class="node"><title>runtime</title>
<ellipse fill="none" stroke="black" cx="2151" cy="-18" rx="39.9464" ry="18"/>
<text text-anchor="middle" x="2151" y="-14.3" font-family="Helvetica,sans-Serif" font-size="14.00">runtime</text>
</g>
<!-- video&#45;&gt;runtime -->
<g id="edge56" class="edge"><title>video&#45;&gt;runtime</title>
<path fill="none" stroke="black" d="M1647.26,-93.6903C1721.27,-89.7017 1931.79,-75.4708 2102,-36 2105.2,-35.2575 2108.49,-34.3812 2111.77,-33.4243"/>
<polygon fill="black" stroke="black" points="2121.5,-30.365 2113.31,-37.6569 2116.73,-31.8645 2111.96,-33.364 2111.96,-33.364 2111.96,-33.364 2116.73,-31.8645 2110.61,-29.0712 2121.5,-30.365 2121.5,-30.365"/>
</g>
<!-- trailerPath -->
<g id="node59" class="node"><title>trailerPath</title>
<ellipse fill="none" stroke="black" cx="2260" cy="-18" rx="50.5427" ry="18"/>
<text text-anchor="middle" x="2260" y="-14.3" font-family="Helvetica,sans-Serif" font-size="14.00">trailerPath</text>
</g>
<!-- video&#45;&gt;trailerPath -->
<g id="edge57" class="edge"><title>video&#45;&gt;trailerPath</title>
<path fill="none" stroke="black" d="M1647.15,-94.0363C1730.49,-90.6954 1989.73,-77.4491 2200,-36 2204.42,-35.1284 2208.99,-34.0908 2213.54,-32.9643"/>
<polygon fill="black" stroke="black" points="2223.42,-30.3858 2214.88,-37.2659 2218.58,-31.6488 2213.75,-32.9118 2213.75,-32.9118 2213.75,-32.9118 2218.58,-31.6488 2212.61,-28.5578 2223.42,-30.3858 2223.42,-30.3858"/>
</g>
<!-- rottentomatoesPercent -->
<g id="node60" class="node"><title>rottentomatoesPercent</title>
<ellipse fill="none" stroke="black" cx="2429" cy="-18" rx="100.137" ry="18"/>
<text text-anchor="middle" x="2429" y="-14.3" font-family="Helvetica,sans-Serif" font-size="14.00">rottentomatoesPercent</text>
</g>
<!-- video&#45;&gt;rottentomatoesPercent -->
<g id="edge58" class="edge"><title>video&#45;&gt;rottentomatoesPercent</title>
<path fill="none" stroke="black" d="M1647.07,-93.4747C1740.52,-88.0465 2058.23,-68.2487 2319,-36 2328.32,-34.847 2338.07,-33.5189 2347.75,-32.1238"/>
<polygon fill="black" stroke="black" points="2357.79,-30.6501 2348.55,-36.5551 2352.84,-31.3765 2347.89,-32.1028 2347.89,-32.1028 2347.89,-32.1028 2352.84,-31.3765 2347.24,-27.6506 2357.79,-30.6501 2357.79,-30.6501"/>
</g>
<!-- rating -->
<g id="node61" class="node"><title>rating</title>
<ellipse fill="none" stroke="black" cx="2580" cy="-18" rx="32.2457" ry="18"/>
<text text-anchor="middle" x="2580" y="-14.3" font-family="Helvetica,sans-Serif" font-size="14.00">rating</text>
</g>
<!-- video&#45;&gt;rating -->
<g id="edge59" class="edge"><title>video&#45;&gt;rating</title>
<path fill="none" stroke="black" d="M1647.18,-94.4235C1780.03,-91.4274 2361.86,-76.2006 2538,-36 2540.8,-35.36 2543.66,-34.5561 2546.51,-33.6481"/>
<polygon fill="black" stroke="black" points="2556,-30.247 2548.1,-37.8567 2551.29,-31.9337 2546.58,-33.6205 2546.58,-33.6205 2546.58,-33.6205 2551.29,-31.9337 2545.07,-29.3843 2556,-30.247 2556,-30.247"/>
</g>
<!-- videoPlot -->
<g id="node62" class="node"><title>videoPlot</title>
<ellipse fill="none" stroke="black" cx="2677" cy="-18" rx="46.1964" ry="18"/>
<text text-anchor="middle" x="2677" y="-14.3" font-family="Helvetica,sans-Serif" font-size="14.00">videoPlot</text>
</g>
<!-- video&#45;&gt;videoPlot -->
<g id="edge60" class="edge"><title>video&#45;&gt;videoPlot</title>
<path fill="none" stroke="black" d="M1647.35,-94.1746C1749.45,-90.9859 2117.97,-78.5138 2421,-56 2510.09,-49.3812 2533.4,-53.5023 2621,-36 2625.09,-35.1826 2629.31,-34.19 2633.51,-33.0995"/>
<polygon fill="black" stroke="black" points="2643.21,-30.4136 2634.78,-37.4187 2638.4,-31.7477 2633.58,-33.0818 2633.58,-33.0818 2633.58,-33.0818 2638.4,-31.7477 2632.38,-28.745 2643.21,-30.4136 2643.21,-30.4136"/>
</g>
<!-- language -->
<g id="node63" class="node"><title>language</title>
<ellipse fill="none" stroke="black" cx="2789" cy="-18" rx="46.1964" ry="18"/>
<text text-anchor="middle" x="2789" y="-14.3" font-family="Helvetica,sans-Serif" font-size="14.00">language</text>
</g>
<!-- video&#45;&gt;language -->
<g id="edge61" class="edge"><title>video&#45;&gt;language</title>
<path fill="none" stroke="black" d="M1647.21,-93.9532C1751.26,-89.8997 2134,-74.5375 2449,-56 2574.87,-48.5924 2607.95,-58.5989 2732,-36 2736.41,-35.1975 2740.95,-34.1792 2745.47,-33.0411"/>
<polygon fill="black" stroke="black" points="2755.24,-30.3959 2746.76,-37.3534 2750.41,-31.7029 2745.58,-33.0099 2745.58,-33.0099 2745.58,-33.0099 2750.41,-31.7029 2744.41,-28.6663 2755.24,-30.3959 2755.24,-30.3959"/>
</g>
<!-- budget -->
<g id="node64" class="node"><title>budget</title>
<ellipse fill="none" stroke="black" cx="2891" cy="-18" rx="37.5442" ry="18"/>
<text text-anchor="middle" x="2891" y="-14.3" font-family="Helvetica,sans-Serif" font-size="14.00">budget</text>
</g>
<!-- video&#45;&gt;budget -->
<g id="edge62" class="edge"><title>video&#45;&gt;budget</title>
<path fill="none" stroke="black" d="M1647.12,-93.865C1753.41,-89.3955 2151.98,-72.449 2480,-56 2641.82,-47.8855 2685.24,-68.3437 2844,-36 2847.23,-35.3418 2850.54,-34.5044 2853.83,-33.5555"/>
<polygon fill="black" stroke="black" points="2863.55,-30.4422 2855.4,-37.7774 2858.79,-31.967 2854.03,-33.4917 2854.03,-33.4917 2854.03,-33.4917 2858.79,-31.967 2852.66,-29.206 2863.55,-30.4422 2863.55,-30.4422"/>
</g>
<!-- openingWeekendGross -->
<g id="node65" class="node"><title>openingWeekendGross</title>
<ellipse fill="none" stroke="black" cx="3050" cy="-18" rx="103.012" ry="18"/>
<text text-anchor="middle" x="3050" y="-14.3" font-family="Helvetica,sans-Serif" font-size="14.00">openingWeekendGross</text>
</g>
<!-- video&#45;&gt;openingWeekendGross -->
<g id="edge63" class="edge"><title>video&#45;&gt;openingWeekendGross</title>
<path fill="none" stroke="black" d="M1647.09,-94.1387C1762.72,-90.4185 2226.34,-75.0534 2607,-56 2753.75,-48.6544 2790.87,-51.3893 2937,-36 2946.84,-34.9637 2957.14,-33.6859 2967.33,-32.3001"/>
<polygon fill="black" stroke="black" points="2977.48,-30.8832 2968.2,-36.723 2972.53,-31.5747 2967.58,-32.2663 2967.58,-32.2663 2967.58,-32.2663 2972.53,-31.5747 2966.95,-27.8095 2977.48,-30.8832 2977.48,-30.8832"/>
</g>
<!-- gross -->
<g id="node66" class="node"><title>gross</title>
<ellipse fill="none" stroke="black" cx="3204" cy="-18" rx="32.2457" ry="18"/>
<text text-anchor="middle" x="3204" y="-14.3" font-family="Helvetica,sans-Serif" font-size="14.00">gross</text>
</g>
<!-- video&#45;&gt;gross -->
<g id="edge64" class="edge"><title>video&#45;&gt;gross</title>
<path fill="none" stroke="black" d="M1647.22,-93.9623C1765.43,-89.4546 2246.16,-71.1195 2641,-56 2872.56,-47.1331 2935.44,-84.6425 3162,-36 3164.81,-35.3963 3167.68,-34.6182 3170.52,-33.7279"/>
<polygon fill="black" stroke="black" points="3180.02,-30.3591 3172.1,-37.9431 3175.31,-32.0305 3170.6,-33.702 3170.6,-33.702 3170.6,-33.702 3175.31,-32.0305 3169.09,-29.4609 3180.02,-30.3591 3180.02,-30.3591"/>
</g>
<!-- alternateTitle -->
<g id="node67" class="node"><title>alternateTitle</title>
<ellipse fill="none" stroke="black" cx="915" cy="-18" rx="61.6163" ry="18"/>
<text text-anchor="middle" x="915" y="-14.3" font-family="Helvetica,sans-Serif" font-size="14.00">alternateTitle</text>
</g>
<!-- video&#45;&gt;alternateTitle -->
<g id="edge65" class="edge"><title>video&#45;&gt;alternateTitle</title>
<path fill="none" stroke="black" d="M1592.9,-93.8942C1504.75,-89.9976 1218.43,-74.976 985,-36 979.68,-35.1118 974.167,-34.0404 968.675,-32.8727"/>
<polygon fill="black" stroke="black" points="958.861,-30.6858 969.6,-28.4686 963.741,-31.7734 968.621,-32.8609 968.621,-32.8609 968.621,-32.8609 963.741,-31.7734 967.643,-37.2532 958.861,-30.6858 958.861,-30.6858"/>
</g>
<!-- officialSite -->
<g id="node68" class="node"><title>officialSite</title>
<ellipse fill="none" stroke="black" cx="1045" cy="-18" rx="50.5427" ry="18"/>
<text text-anchor="middle" x="1045" y="-14.3" font-family="Helvetica,sans-Serif" font-size="14.00">officialSite</text>
</g>
<!-- video&#45;&gt;officialSite -->
<g id="edge66" class="edge"><title>video&#45;&gt;officialSite</title>
<path fill="none" stroke="black" d="M1592.9,-93.4975C1515.78,-88.8813 1288.8,-72.9202 1104,-36 1099.88,-35.1777 1095.64,-34.2062 1091.4,-33.1508"/>
<polygon fill="black" stroke="black" points="1081.59,-30.5668 1092.41,-28.7624 1086.43,-31.8404 1091.26,-33.114 1091.26,-33.114 1091.26,-33.114 1086.43,-31.8404 1090.11,-37.4655 1081.59,-30.5668 1081.59,-30.5668"/>
</g>
<!-- filmingLocation -->
<g id="node69" class="node"><title>filmingLocation</title>
<ellipse fill="none" stroke="black" cx="1183" cy="-18" rx="69.3156" ry="18"/>
<text text-anchor="middle" x="1183" y="-14.3" font-family="Helvetica,sans-Serif" font-size="14.00">filmingLocation</text>
</g>
<!-- video&#45;&gt;filmingLocation -->
<g id="edge67" class="edge"><title>video&#45;&gt;filmingLocation</title>
<path fill="none" stroke="black" d="M1592.98,-91.0055C1533.17,-82.0648 1385.15,-59.3842 1262,-36 1256.17,-34.8934 1250.11,-33.6887 1244.06,-32.4483"/>
<polygon fill="black" stroke="black" points="1233.92,-30.3384 1244.63,-27.97 1238.82,-31.357 1243.71,-32.3756 1243.71,-32.3756 1243.71,-32.3756 1238.82,-31.357 1242.8,-36.7813 1233.92,-30.3384 1233.92,-30.3384"/>
</g>
<!-- tagline -->
<g id="node70" class="node"><title>tagline</title>
<ellipse fill="none" stroke="black" cx="1307" cy="-18" rx="36.096" ry="18"/>
<text text-anchor="middle" x="1307" y="-14.3" font-family="Helvetica,sans-Serif" font-size="14.00">tagline</text>
</g>
<!-- video&#45;&gt;tagline -->
<g id="edge68" class="edge"><title>video&#45;&gt;tagline</title>
<path fill="none" stroke="black" d="M1592.66,-90.3324C1543.81,-81.6939 1438.54,-61.7252 1352,-36 1349.39,-35.2236 1346.71,-34.369 1344.03,-33.4688"/>
<polygon fill="black" stroke="black" points="1334.39,-30.0668 1345.32,-29.1521 1339.11,-31.7312 1343.82,-33.3955 1343.82,-33.3955 1343.82,-33.3955 1339.11,-31.7312 1342.32,-37.6389 1334.39,-30.0668 1334.39,-30.0668"/>
</g>
<!-- quotes -->
<g id="node71" class="node"><title>quotes</title>
<ellipse fill="none" stroke="black" cx="1398" cy="-18" rx="37.0701" ry="18"/>
<text text-anchor="middle" x="1398" y="-14.3" font-family="Helvetica,sans-Serif" font-size="14.00">quotes</text>
</g>
<!-- video&#45;&gt;quotes -->
<g id="edge69" class="edge"><title>video&#45;&gt;quotes</title>
<path fill="none" stroke="black" d="M1592.78,-86.1596C1558.12,-74.8388 1496.43,-54.4721 1444,-36 1441.45,-35.1026 1438.83,-34.1667 1436.19,-33.2155"/>
<polygon fill="black" stroke="black" points="1426.66,-29.7457 1437.6,-28.9382 1431.36,-31.4562 1436.06,-33.1667 1436.06,-33.1667 1436.06,-33.1667 1431.36,-31.4562 1434.52,-37.3952 1426.66,-29.7457 1426.66,-29.7457"/>
</g>
<!-- episode -->
<g id="node7" class="node"><title>episode</title>
<polygon fill="none" stroke="black" points="5153,-114 5089,-114 5089,-78 5153,-78 5153,-114"/>
<text text-anchor="middle" x="5121" y="-92.3" font-family="Helvetica,sans-Serif" font-size="14.00">episode</text>
</g>
<!-- episodeId_pk -->
<g id="node26" class="node"><title>episodeId_pk</title>
<ellipse fill="none" stroke="black" cx="5328" cy="-18" rx="48.6179" ry="18"/>
<text text-anchor="start" x="5298.5" y="-15.3" font-family="Helvetica,sans-Serif" text-decoration="underline" font-size="14.00">episodeId</text>
</g>
<!-- episode&#45;&gt;episodeId_pk -->
<g id="edge71" class="edge"><title>episode&#45;&gt;episodeId_pk</title>
<path fill="none" stroke="black" d="M5153.34,-83.125C5188.88,-70.0781 5246.11,-49.0676 5285.3,-34.676"/>
<polygon fill="black" stroke="black" points="5294.86,-31.1686 5287.02,-38.8395 5290.16,-32.8919 5285.47,-34.6152 5285.47,-34.6152 5285.47,-34.6152 5290.16,-32.8919 5283.92,-30.3909 5294.86,-31.1686 5294.86,-31.1686"/>
</g>
<!-- videoId_fk -->
<g id="node34" class="node"><title>videoId_fk</title>
<ellipse fill="none" stroke="black" cx="4649" cy="-18" rx="38.4949" ry="18"/>
<text text-anchor="start" x="4627" y="-15.3" font-family="Helvetica,sans-Serif" text-decoration="underline" font-size="14.00">videoId</text>
</g>
<!-- episode&#45;&gt;videoId_fk -->
<g id="edge78" class="edge"><title>episode&#45;&gt;videoId_fk</title>
<path fill="none" stroke="black" d="M5088.94,-92.7623C5017.63,-87.3041 4840.86,-71.1023 4697,-36 4693.82,-35.2246 4690.56,-34.3183 4687.31,-33.335"/>
<polygon fill="black" stroke="black" points="4677.65,-30.2084 4688.55,-29.008 4682.41,-31.7488 4687.16,-33.2891 4687.16,-33.2891 4687.16,-33.2891 4682.41,-31.7488 4685.78,-37.5703 4677.65,-30.2084 4677.65,-30.2084"/>
</g>
<!-- episodeTitle -->
<g id="node72" class="node"><title>episodeTitle</title>
<ellipse fill="none" stroke="black" cx="5453" cy="-18" rx="57.2688" ry="18"/>
<text text-anchor="middle" x="5453" y="-14.3" font-family="Helvetica,sans-Serif" font-size="14.00">episodeTitle</text>
</g>
<!-- episode&#45;&gt;episodeTitle -->
<g id="edge72" class="edge"><title>episode&#45;&gt;episodeTitle</title>
<path fill="none" stroke="black" d="M5153.16,-88.0844C5202.94,-77.3209 5301.6,-55.7421 5385,-36 5389.91,-34.8385 5395.01,-33.6076 5400.11,-32.3603"/>
<polygon fill="black" stroke="black" points="5409.87,-29.955 5401.24,-36.7164 5405.02,-31.151 5400.16,-32.347 5400.16,-32.347 5400.16,-32.347 5405.02,-31.151 5399.09,-27.9776 5409.87,-29.955 5409.87,-29.955"/>
</g>
<!-- number -->
<g id="node73" class="node"><title>number</title>
<ellipse fill="none" stroke="black" cx="5570" cy="-18" rx="40.4202" ry="18"/>
<text text-anchor="middle" x="5570" y="-14.3" font-family="Helvetica,sans-Serif" font-size="14.00">number</text>
</g>
<!-- episode&#45;&gt;number -->
<g id="edge73" class="edge"><title>episode&#45;&gt;number</title>
<path fill="none" stroke="black" d="M5153.09,-92.1617C5221.2,-85.7192 5384.99,-68.0096 5519,-36 5522.62,-35.1361 5526.34,-34.1293 5530.06,-33.045"/>
<polygon fill="black" stroke="black" points="5539.78,-30.0388 5531.55,-37.2927 5535,-31.5162 5530.22,-32.9936 5530.22,-32.9936 5530.22,-32.9936 5535,-31.5162 5528.89,-28.6945 5539.78,-30.0388 5539.78,-30.0388"/>
</g>
<!-- season -->
<g id="node74" class="node"><title>season</title>
<ellipse fill="none" stroke="black" cx="4893" cy="-18" rx="38.4949" ry="18"/>
<text text-anchor="middle" x="4893" y="-14.3" font-family="Helvetica,sans-Serif" font-size="14.00">season</text>
</g>
<!-- episode&#45;&gt;season -->
<g id="edge74" class="edge"><title>episode&#45;&gt;season</title>
<path fill="none" stroke="black" d="M5088.73,-84.6774C5052.65,-73.0757 4992.51,-53.5624 4941,-36 4938.12,-35.0189 4935.15,-33.9947 4932.16,-32.9565"/>
<polygon fill="black" stroke="black" points="4922.66,-29.6292 4933.59,-28.6875 4927.38,-31.2819 4932.1,-32.9346 4932.1,-32.9346 4932.1,-32.9346 4927.38,-31.2819 4930.61,-37.1816 4922.66,-29.6292 4922.66,-29.6292"/>
</g>
<!-- episodePlot -->
<g id="node75" class="node"><title>episodePlot</title>
<ellipse fill="none" stroke="black" cx="5007" cy="-18" rx="56.3173" ry="18"/>
<text text-anchor="middle" x="5007" y="-14.3" font-family="Helvetica,sans-Serif" font-size="14.00">episodePlot</text>
</g>
<!-- episode&#45;&gt;episodePlot -->
<g id="edge75" class="edge"><title>episode&#45;&gt;episodePlot</title>
<path fill="none" stroke="black" d="M5095.42,-77.9441C5078.6,-66.7363 5056.49,-51.9936 5038.58,-40.0562"/>
<polygon fill="black" stroke="black" points="5030.17,-34.4491 5040.99,-36.2519 5034.33,-37.2227 5038.49,-39.9962 5038.49,-39.9962 5038.49,-39.9962 5034.33,-37.2227 5036,-43.7404 5030.17,-34.4491 5030.17,-34.4491"/>
</g>
<!-- airDate -->
<g id="node76" class="node"><title>airDate</title>
<ellipse fill="none" stroke="black" cx="5121" cy="-18" rx="38.4949" ry="18"/>
<text text-anchor="middle" x="5121" y="-14.3" font-family="Helvetica,sans-Serif" font-size="14.00">airDate</text>
</g>
<!-- episode&#45;&gt;airDate -->
<g id="edge76" class="edge"><title>episode&#45;&gt;airDate</title>
<path fill="none" stroke="black" d="M5121,-77.7544C5121,-68.5232 5121,-56.9348 5121,-46.4946"/>
<polygon fill="black" stroke="black" points="5121,-36.1773 5125.5,-46.1773 5121,-41.1773 5121,-46.1773 5121,-46.1773 5121,-46.1773 5121,-41.1773 5116.5,-46.1774 5121,-36.1773 5121,-36.1773"/>
</g>
<!-- network -->
<g id="node77" class="node"><title>network</title>
<ellipse fill="none" stroke="black" cx="5220" cy="-18" rx="41.394" ry="18"/>
<text text-anchor="middle" x="5220" y="-14.3" font-family="Helvetica,sans-Serif" font-size="14.00">network</text>
</g>
<!-- episode&#45;&gt;network -->
<g id="edge77" class="edge"><title>episode&#45;&gt;network</title>
<path fill="none" stroke="black" d="M5143.46,-77.7544C5157.91,-66.6687 5176.77,-52.1837 5192.16,-40.37"/>
<polygon fill="black" stroke="black" points="5200.3,-34.1202 5195.11,-43.7791 5196.34,-37.1649 5192.37,-40.2096 5192.37,-40.2096 5192.37,-40.2096 5196.34,-37.1649 5189.63,-36.6401 5200.3,-34.1202 5200.3,-34.1202"/>
</g>
<!-- creative -->
<g id="node8" class="node"><title>creative</title>
<polygon fill="none" stroke="black" points="1955,-294 1891,-294 1891,-258 1955,-258 1955,-294"/>
<text text-anchor="middle" x="1923" y="-272.3" font-family="Helvetica,sans-Serif" font-size="14.00">creative</text>
</g>
<!-- creativeId_pk -->
<g id="node27" class="node"><title>creativeId_pk</title>
<ellipse fill="none" stroke="black" cx="2287" cy="-188" rx="48.6179" ry="18"/>
<text text-anchor="start" x="2257.5" y="-185.3" font-family="Helvetica,sans-Serif" text-decoration="underline" font-size="14.00">creativeId</text>
</g>
<!-- creative&#45;&gt;creativeId_pk -->
<g id="edge79" class="edge"><title>creative&#45;&gt;creativeId_pk</title>
<path fill="none" stroke="black" d="M1955.32,-268.415C2011.32,-256.85 2129.89,-231.672 2229,-206 2232.83,-205.007 2236.8,-203.938 2240.77,-202.836"/>
<polygon fill="black" stroke="black" points="2250.59,-200.055 2242.19,-207.109 2245.78,-201.417 2240.97,-202.779 2240.97,-202.779 2240.97,-202.779 2245.78,-201.417 2239.74,-198.45 2250.59,-200.055 2250.59,-200.055"/>
</g>
<!-- creative&#45;&gt;has -->
<g id="edge19" class="edge"><title>creative&#45;&gt;has</title>
<path fill="none" stroke="black" d="M1890.78,-268.815C1808.82,-253.081 1592.94,-211.641 1509.04,-195.534"/>
<polygon fill="black" stroke="black" points="1499.02,-193.61 1509.69,-191.076 1503.93,-194.553 1508.84,-195.496 1508.84,-195.496 1508.84,-195.496 1503.93,-194.553 1507.99,-199.915 1499.02,-193.61 1499.02,-193.61"/>
<text text-anchor="middle" x="1746.5" y="-228.3" font-family="Helvetica,sans-Serif" font-size="14.00">m</text>
</g>
<!-- creative&#45;&gt;has -->
<g id="edge23" class="edge"><title>creative&#45;&gt;has</title>
<path fill="none" stroke="black" d="M1890.88,-274.651C1831.64,-273.332 1701.59,-267.271 1596,-240 1561.66,-231.131 1524.38,-214.208 1500.4,-202.295"/>
<polygon fill="black" stroke="black" points="1491.3,-197.69 1502.25,-198.186 1495.76,-199.946 1500.22,-202.202 1500.22,-202.202 1500.22,-202.202 1495.76,-199.946 1498.19,-206.218 1491.3,-197.69 1491.3,-197.69"/>
<text text-anchor="middle" x="1602.5" y="-228.3" font-family="Helvetica,sans-Serif" font-size="14.00">m</text>
</g>
<!-- creativeName -->
<g id="node78" class="node"><title>creativeName</title>
<ellipse fill="none" stroke="black" cx="1725" cy="-188" rx="65.4659" ry="18"/>
<text text-anchor="middle" x="1725" y="-184.3" font-family="Helvetica,sans-Serif" font-size="14.00">creativeName</text>
</g>
<!-- creative&#45;&gt;creativeName -->
<g id="edge80" class="edge"><title>creative&#45;&gt;creativeName</title>
<path fill="none" stroke="black" d="M1890.92,-271.687C1861.03,-267.565 1815.95,-258.648 1781,-240 1768.18,-233.161 1756,-222.728 1746.29,-213.076"/>
<polygon fill="black" stroke="black" points="1739.07,-205.586 1749.25,-209.661 1742.54,-209.185 1746.01,-212.785 1746.01,-212.785 1746.01,-212.785 1742.54,-209.185 1742.77,-215.908 1739.07,-205.586 1739.07,-205.586"/>
</g>
<!-- creativeType -->
<g id="node79" class="node"><title>creativeType</title>
<ellipse fill="none" stroke="black" cx="1870" cy="-188" rx="61.1419" ry="18"/>
<text text-anchor="middle" x="1870" y="-184.3" font-family="Helvetica,sans-Serif" font-size="14.00">creativeType</text>
</g>
<!-- creative&#45;&gt;creativeType -->
<g id="edge81" class="edge"><title>creative&#45;&gt;creativeType</title>
<path fill="none" stroke="black" d="M1912.27,-257.597C1904.63,-245.196 1894.24,-228.33 1885.67,-214.425"/>
<polygon fill="black" stroke="black" points="1880.35,-205.792 1889.43,-211.944 1882.97,-210.049 1885.6,-214.305 1885.6,-214.305 1885.6,-214.305 1882.97,-210.049 1881.76,-216.666 1880.35,-205.792 1880.35,-205.792"/>
</g>
<!-- bio -->
<g id="node80" class="node"><title>bio</title>
<ellipse fill="none" stroke="black" cx="1976" cy="-188" rx="27" ry="18"/>
<text text-anchor="middle" x="1976" y="-184.3" font-family="Helvetica,sans-Serif" font-size="14.00">bio</text>
</g>
<!-- creative&#45;&gt;bio -->
<g id="edge82" class="edge"><title>creative&#45;&gt;bio</title>
<path fill="none" stroke="black" d="M1933.73,-257.597C1941.52,-244.954 1952.17,-227.671 1960.83,-213.616"/>
<polygon fill="black" stroke="black" points="1966.18,-204.927 1964.77,-215.801 1963.56,-209.184 1960.94,-213.44 1960.94,-213.44 1960.94,-213.44 1963.56,-209.184 1957.11,-211.08 1966.18,-204.927 1966.18,-204.927"/>
</g>
<!-- birthday -->
<g id="node81" class="node"><title>birthday</title>
<ellipse fill="none" stroke="black" cx="2063" cy="-188" rx="42.3701" ry="18"/>
<text text-anchor="middle" x="2063" y="-184.3" font-family="Helvetica,sans-Serif" font-size="14.00">birthday</text>
</g>
<!-- creative&#45;&gt;birthday -->
<g id="edge83" class="edge"><title>creative&#45;&gt;birthday</title>
<path fill="none" stroke="black" d="M1950.99,-257.803C1974.06,-243.634 2006.78,-223.532 2030.91,-208.714"/>
<polygon fill="black" stroke="black" points="2039.69,-203.317 2033.53,-212.385 2035.43,-205.934 2031.17,-208.551 2031.17,-208.551 2031.17,-208.551 2035.43,-205.934 2028.82,-204.716 2039.69,-203.317 2039.69,-203.317"/>
</g>
<!-- birthplace -->
<g id="node82" class="node"><title>birthplace</title>
<ellipse fill="none" stroke="black" cx="2172" cy="-188" rx="48.6179" ry="18"/>
<text text-anchor="middle" x="2172" y="-184.3" font-family="Helvetica,sans-Serif" font-size="14.00">birthplace</text>
</g>
<!-- creative&#45;&gt;birthplace -->
<g id="edge84" class="edge"><title>creative&#45;&gt;birthplace</title>
<path fill="none" stroke="black" d="M1955.04,-263.933C1999.13,-248.707 2078.64,-221.244 2128.19,-204.13"/>
<polygon fill="black" stroke="black" points="2137.69,-200.851 2129.7,-208.37 2132.96,-202.484 2128.23,-204.116 2128.23,-204.116 2128.23,-204.116 2132.96,-202.484 2126.76,-199.863 2137.69,-200.851 2137.69,-200.851"/>
</g>
<!-- genre -->
<g id="node9" class="node"><title>genre</title>
<polygon fill="none" stroke="black" points="1330,-470 1276,-470 1276,-434 1330,-434 1330,-470"/>
<text text-anchor="middle" x="1303" y="-448.3" font-family="Helvetica,sans-Serif" font-size="14.00">genre</text>
</g>
<!-- genreId_pk -->
<g id="node28" class="node"><title>genreId_pk</title>
<ellipse fill="none" stroke="black" cx="1170" cy="-364" rx="39.9464" ry="18"/>
<text text-anchor="start" x="1147" y="-361.3" font-family="Helvetica,sans-Serif" text-decoration="underline" font-size="14.00">genreId</text>
</g>
<!-- genre&#45;&gt;genreId_pk -->
<g id="edge85" class="edge"><title>genre&#45;&gt;genreId_pk</title>
<path fill="none" stroke="black" d="M1276.41,-433.803C1254.59,-419.696 1223.68,-399.709 1200.79,-384.91"/>
<polygon fill="black" stroke="black" points="1192.14,-379.317 1202.98,-380.968 1196.34,-382.032 1200.54,-384.747 1200.54,-384.747 1200.54,-384.747 1196.34,-382.032 1198.09,-388.525 1192.14,-379.317 1192.14,-379.317"/>
</g>
<!-- genre&#45;&gt;is -->
<g id="edge29" class="edge"><title>genre&#45;&gt;is</title>
<path fill="none" stroke="black" d="M1330.07,-435.084C1337.55,-429.731 1345.21,-423.252 1351,-416 1357.3,-408.117 1362.12,-398.159 1365.63,-389.139"/>
<polygon fill="black" stroke="black" points="1369.03,-379.514 1369.94,-390.442 1367.36,-384.228 1365.69,-388.942 1365.69,-388.942 1365.69,-388.942 1367.36,-384.228 1361.45,-387.442 1369.03,-379.514 1369.03,-379.514"/>
<text text-anchor="middle" x="1367.5" y="-404.3" font-family="Helvetica,sans-Serif" font-size="14.00">m</text>
</g>
<!-- genre&#45;&gt;is -->
<g id="edge33" class="edge"><title>genre&#45;&gt;is</title>
<path fill="none" stroke="black" d="M1311.88,-433.63C1317.54,-423.354 1325.4,-410.365 1334,-400 1339.64,-393.207 1346.6,-386.536 1353.08,-380.869"/>
<polygon fill="black" stroke="black" points="1360.89,-374.296 1356.14,-384.179 1357.07,-377.516 1353.24,-380.736 1353.24,-380.736 1353.24,-380.736 1357.07,-377.516 1350.34,-377.294 1360.89,-374.296 1360.89,-374.296"/>
<text text-anchor="middle" x="1340.5" y="-404.3" font-family="Helvetica,sans-Serif" font-size="14.00">m</text>
</g>
<!-- genreTitle -->
<g id="node83" class="node"><title>genreTitle</title>
<ellipse fill="none" stroke="black" cx="1278" cy="-364" rx="50.0684" ry="18"/>
<text text-anchor="middle" x="1278" y="-360.3" font-family="Helvetica,sans-Serif" font-size="14.00">genreTitle</text>
</g>
<!-- genre&#45;&gt;genreTitle -->
<g id="edge86" class="edge"><title>genre&#45;&gt;genreTitle</title>
<path fill="none" stroke="black" d="M1290.63,-433.957C1287.26,-428.477 1283.98,-422.21 1282,-416 1279.62,-408.555 1278.4,-400.203 1277.83,-392.446"/>
<polygon fill="black" stroke="black" points="1277.4,-382.379 1282.33,-392.178 1277.62,-387.374 1277.83,-392.37 1277.83,-392.37 1277.83,-392.37 1277.62,-387.374 1273.33,-392.561 1277.4,-382.379 1277.4,-382.379"/>
</g>
<!-- character -->
<g id="node10" class="node"><title>character</title>
<polygon fill="none" stroke="black" points="1509.25,-470 1436.75,-470 1436.75,-434 1509.25,-434 1509.25,-470"/>
<text text-anchor="middle" x="1473" y="-448.3" font-family="Helvetica,sans-Serif" font-size="14.00">character</text>
</g>
<!-- characterId_pk -->
<g id="node29" class="node"><title>characterId_pk</title>
<ellipse fill="none" stroke="black" cx="1473" cy="-364" rx="54.3924" ry="18"/>
<text text-anchor="start" x="1439" y="-361.3" font-family="Helvetica,sans-Serif" text-decoration="underline" font-size="14.00">characterId</text>
</g>
<!-- character&#45;&gt;characterId_pk -->
<g id="edge87" class="edge"><title>character&#45;&gt;characterId_pk</title>
<path fill="none" stroke="black" d="M1473,-433.597C1473,-421.746 1473,-405.817 1473,-392.292"/>
<polygon fill="black" stroke="black" points="1473,-382.084 1477.5,-392.084 1473,-387.084 1473,-392.084 1473,-392.084 1473,-392.084 1473,-387.084 1468.5,-392.084 1473,-382.084 1473,-382.084"/>
</g>
<!-- character&#45;&gt;is -->
<g id="edge25" class="edge"><title>character&#45;&gt;is</title>
<path fill="none" stroke="black" d="M1436.55,-434.272C1427.35,-429.135 1417.87,-422.971 1410,-416 1400.35,-407.446 1391.74,-395.953 1385.26,-386.043"/>
<polygon fill="black" stroke="black" points="1379.94,-377.516 1389.05,-383.617 1382.58,-381.758 1385.23,-386 1385.23,-386 1385.23,-386 1382.58,-381.758 1381.41,-388.382 1379.94,-377.516 1379.94,-377.516"/>
<text text-anchor="middle" x="1416.5" y="-404.3" font-family="Helvetica,sans-Serif" font-size="14.00">m</text>
</g>
<!-- characterName -->
<g id="node84" class="node"><title>characterName</title>
<ellipse fill="none" stroke="black" cx="1617" cy="-364" rx="71.2405" ry="18"/>
<text text-anchor="middle" x="1617" y="-360.3" font-family="Helvetica,sans-Serif" font-size="14.00">characterName</text>
</g>
<!-- character&#45;&gt;characterName -->
<g id="edge88" class="edge"><title>character&#45;&gt;characterName</title>
<path fill="none" stroke="black" d="M1501.79,-433.803C1524.75,-420.095 1557,-400.835 1581.54,-386.178"/>
<polygon fill="black" stroke="black" points="1590.2,-381.005 1583.92,-389.996 1585.91,-383.569 1581.62,-386.132 1581.62,-386.132 1581.62,-386.132 1585.91,-383.569 1579.31,-382.269 1590.2,-381.005 1590.2,-381.005"/>
</g>
<!-- releaseDate -->
<g id="node11" class="node"><title>releaseDate</title>
<polygon fill="none" stroke="black" points="2463.25,-294 2374.75,-294 2374.75,-258 2463.25,-258 2463.25,-294"/>
<text text-anchor="middle" x="2419" y="-272.3" font-family="Helvetica,sans-Serif" font-size="14.00">releaseDate</text>
</g>
<!-- releaseDateId_pk -->
<g id="node30" class="node"><title>releaseDateId_pk</title>
<ellipse fill="none" stroke="black" cx="2419" cy="-188" rx="65.4659" ry="18"/>
<text text-anchor="start" x="2376.5" y="-185.3" font-family="Helvetica,sans-Serif" text-decoration="underline" font-size="14.00">releaseDateId</text>
</g>
<!-- releaseDate&#45;&gt;releaseDateId_pk -->
<g id="edge89" class="edge"><title>releaseDate&#45;&gt;releaseDateId_pk</title>
<path fill="none" stroke="black" d="M2419,-257.597C2419,-245.746 2419,-229.817 2419,-216.292"/>
<polygon fill="black" stroke="black" points="2419,-206.084 2423.5,-216.084 2419,-211.084 2419,-216.084 2419,-216.084 2419,-216.084 2419,-211.084 2414.5,-216.084 2419,-206.084 2419,-206.084"/>
</g>
<!-- releaseDate&#45;&gt;has -->
<g id="edge9" class="edge"><title>releaseDate&#45;&gt;has</title>
<path fill="none" stroke="black" d="M2374.35,-271.109C2256.14,-260.784 1925.27,-231.719 1650,-206 1602.76,-201.587 1548.38,-196.266 1512.94,-192.767"/>
<polygon fill="black" stroke="black" points="1502.58,-191.742 1512.97,-188.248 1507.55,-192.234 1512.53,-192.726 1512.53,-192.726 1512.53,-192.726 1507.55,-192.234 1512.08,-197.204 1502.58,-191.742 1502.58,-191.742"/>
<text text-anchor="middle" x="2012" y="-228.3" font-family="Helvetica,sans-Serif" font-size="14.00">1</text>
</g>
<!-- releaseDateDate -->
<g id="node85" class="node"><title>releaseDateDate</title>
<ellipse fill="none" stroke="black" cx="2579" cy="-188" rx="76.5394" ry="18"/>
<text text-anchor="middle" x="2579" y="-184.3" font-family="Helvetica,sans-Serif" font-size="14.00">releaseDateDate</text>
</g>
<!-- releaseDate&#45;&gt;releaseDateDate -->
<g id="edge90" class="edge"><title>releaseDate&#45;&gt;releaseDateDate</title>
<path fill="none" stroke="black" d="M2450.99,-257.803C2476.88,-243.887 2513.42,-224.249 2540.84,-209.513"/>
<polygon fill="black" stroke="black" points="2549.76,-204.719 2543.08,-213.417 2545.35,-207.086 2540.95,-209.453 2540.95,-209.453 2540.95,-209.453 2545.35,-207.086 2538.82,-205.49 2549.76,-204.719 2549.76,-204.719"/>
</g>
<!-- streamLink -->
<g id="node12" class="node"><title>streamLink</title>
<polygon fill="none" stroke="black" points="3597.25,-114 3514.75,-114 3514.75,-78 3597.25,-78 3597.25,-114"/>
<text text-anchor="middle" x="3556" y="-92.3" font-family="Helvetica,sans-Serif" font-size="14.00">streamLink</text>
</g>
<!-- streamLinkId_pk -->
<g id="node31" class="node"><title>streamLinkId_pk</title>
<ellipse fill="none" stroke="black" cx="3483" cy="-18" rx="61.6163" ry="18"/>
<text text-anchor="start" x="3443.5" y="-15.3" font-family="Helvetica,sans-Serif" text-decoration="underline" font-size="14.00">streamLinkId</text>
</g>
<!-- streamLink&#45;&gt;streamLinkId_pk -->
<g id="edge91" class="edge"><title>streamLink&#45;&gt;streamLinkId_pk</title>
<path fill="none" stroke="black" d="M3539.44,-77.7544C3529.59,-67.5063 3516.96,-54.3532 3506.14,-43.0909"/>
<polygon fill="black" stroke="black" points="3499,-35.655 3509.17,-39.7497 3502.46,-39.261 3505.92,-42.867 3505.92,-42.867 3505.92,-42.867 3502.46,-39.261 3502.68,-45.9843 3499,-35.655 3499,-35.655"/>
</g>
<!-- streamLink&#45;&gt;videoId_fk -->
<g id="edge95" class="edge"><title>streamLink&#45;&gt;videoId_fk</title>
<path fill="none" stroke="black" d="M3597.31,-94.193C3765.99,-90.6624 4402.87,-74.975 4600,-36 4603.61,-35.2856 4607.32,-34.3654 4611.01,-33.3235"/>
<polygon fill="black" stroke="black" points="4620.61,-30.3388 4612.39,-37.6043 4615.83,-31.8229 4611.06,-33.3071 4611.06,-33.3071 4611.06,-33.3071 4615.83,-31.8229 4609.72,-29.0099 4620.61,-30.3388 4620.61,-30.3388"/>
</g>
<!-- streamLinkUrl -->
<g id="node86" class="node"><title>streamLinkUrl</title>
<ellipse fill="none" stroke="black" cx="3628" cy="-18" rx="65.4659" ry="18"/>
<text text-anchor="middle" x="3628" y="-14.3" font-family="Helvetica,sans-Serif" font-size="14.00">streamLinkUrl</text>
</g>
<!-- streamLink&#45;&gt;streamLinkUrl -->
<g id="edge92" class="edge"><title>streamLink&#45;&gt;streamLinkUrl</title>
<path fill="none" stroke="black" d="M3572.34,-77.7544C3582.05,-67.5063 3594.51,-54.3532 3605.18,-43.0909"/>
<polygon fill="black" stroke="black" points="3612.22,-35.655 3608.61,-46.0094 3608.78,-39.2848 3605.34,-42.9146 3605.34,-42.9146 3605.34,-42.9146 3608.78,-39.2848 3602.08,-39.8197 3612.22,-35.655 3612.22,-35.655"/>
</g>
<!-- streamLinkSite -->
<g id="node87" class="node"><title>streamLinkSite</title>
<ellipse fill="none" stroke="black" cx="3781" cy="-18" rx="69.3156" ry="18"/>
<text text-anchor="middle" x="3781" y="-14.3" font-family="Helvetica,sans-Serif" font-size="14.00">streamLinkSite</text>
</g>
<!-- streamLink&#45;&gt;streamLinkSite -->
<g id="edge93" class="edge"><title>streamLink&#45;&gt;streamLinkSite</title>
<path fill="none" stroke="black" d="M3597.27,-81.0604C3634.89,-68.3525 3690.57,-49.546 3730.76,-35.9686"/>
<polygon fill="black" stroke="black" points="3740.37,-32.7231 3732.34,-40.1867 3735.64,-34.3232 3730.9,-35.9234 3730.9,-35.9234 3730.9,-35.9234 3735.64,-34.3232 3729.46,-31.66 3740.37,-32.7231 3740.37,-32.7231"/>
</g>
<!-- streamLinkPrice -->
<g id="node88" class="node"><title>streamLinkPrice</title>
<ellipse fill="none" stroke="black" cx="3329" cy="-18" rx="74.1402" ry="18"/>
<text text-anchor="middle" x="3329" y="-14.3" font-family="Helvetica,sans-Serif" font-size="14.00">streamLinkPrice</text>
</g>
<!-- streamLink&#45;&gt;streamLinkPrice -->
<g id="edge94" class="edge"><title>streamLink&#45;&gt;streamLinkPrice</title>
<path fill="none" stroke="black" d="M3514.63,-81.1488C3476.94,-68.5313 3421.14,-49.8488 3380.56,-36.2633"/>
<polygon fill="black" stroke="black" points="3370.85,-33.0131 3381.77,-31.9208 3375.6,-34.6005 3380.34,-36.1879 3380.34,-36.1879 3380.34,-36.1879 3375.6,-34.6005 3378.91,-40.4551 3370.85,-33.0131 3370.85,-33.0131"/>
</g>
<!-- productionCompany -->
<g id="node13" class="node"><title>productionCompany</title>
<polygon fill="none" stroke="black" points="1889,-470 1751,-470 1751,-434 1889,-434 1889,-470"/>
<text text-anchor="middle" x="1820" y="-448.3" font-family="Helvetica,sans-Serif" font-size="14.00">productionCompany</text>
</g>
<!-- productionCompanyId_pk -->
<g id="node32" class="node"><title>productionCompanyId_pk</title>
<ellipse fill="none" stroke="black" cx="2049" cy="-364" rx="96.2631" ry="18"/>
<text text-anchor="start" x="1982.5" y="-361.3" font-family="Helvetica,sans-Serif" text-decoration="underline" font-size="14.00">productionCompanyId</text>
</g>
<!-- productionCompany&#45;&gt;productionCompanyId_pk -->
<g id="edge96" class="edge"><title>productionCompany&#45;&gt;productionCompanyId_pk</title>
<path fill="none" stroke="black" d="M1865.52,-433.906C1903.96,-419.47 1958.93,-398.824 1998.68,-383.899"/>
<polygon fill="black" stroke="black" points="2008.18,-380.331 2000.4,-388.059 2003.5,-382.089 1998.82,-383.847 1998.82,-383.847 1998.82,-383.847 2003.5,-382.089 1997.23,-379.634 2008.18,-380.331 2008.18,-380.331"/>
</g>
<!-- productionCompany&#45;&gt;is -->
<g id="edge37" class="edge"><title>productionCompany&#45;&gt;is</title>
<path fill="none" stroke="black" d="M1750.65,-445.218C1667.84,-436.983 1525.85,-418.628 1409,-382 1404.77,-380.674 1400.4,-378.946 1396.23,-377.1"/>
<polygon fill="black" stroke="black" points="1387,-372.714 1397.96,-372.943 1391.52,-374.861 1396.03,-377.008 1396.03,-377.008 1396.03,-377.008 1391.52,-374.861 1394.1,-381.072 1387,-372.714 1387,-372.714"/>
<text text-anchor="middle" x="1549.5" y="-404.3" font-family="Helvetica,sans-Serif" font-size="14.00">m</text>
</g>
<!-- productionCompanyName -->
<g id="node89" class="node"><title>productionCompanyName</title>
<ellipse fill="none" stroke="black" cx="1820" cy="-364" rx="113.61" ry="18"/>
<text text-anchor="middle" x="1820" y="-360.3" font-family="Helvetica,sans-Serif" font-size="14.00">productionCompanyName</text>
</g>
<!-- productionCompany&#45;&gt;productionCompanyName -->
<g id="edge97" class="edge"><title>productionCompany&#45;&gt;productionCompanyName</title>
<path fill="none" stroke="black" d="M1820,-433.597C1820,-421.746 1820,-405.817 1820,-392.292"/>
<polygon fill="black" stroke="black" points="1820,-382.084 1824.5,-392.084 1820,-387.084 1820,-392.084 1820,-392.084 1820,-392.084 1820,-387.084 1815.5,-392.084 1820,-382.084 1820,-382.084"/>
</g>
<!-- criticReview -->
<g id="node14" class="node"><title>criticReview</title>
<polygon fill="none" stroke="black" points="4340.25,-114 4251.75,-114 4251.75,-78 4340.25,-78 4340.25,-114"/>
<text text-anchor="middle" x="4296" y="-92.3" font-family="Helvetica,sans-Serif" font-size="14.00">criticReview</text>
</g>
<!-- criticReviewId_pk -->
<g id="node33" class="node"><title>criticReviewId_pk</title>
<ellipse fill="none" stroke="black" cx="4771" cy="-18" rx="64.4914" ry="18"/>
<text text-anchor="start" x="4729" y="-15.3" font-family="Helvetica,sans-Serif" text-decoration="underline" font-size="14.00">criticReviewId</text>
</g>
<!-- criticReview&#45;&gt;criticReviewId_pk -->
<g id="edge98" class="edge"><title>criticReview&#45;&gt;criticReviewId_pk</title>
<path fill="none" stroke="black" d="M4340.28,-89.5936C4414.24,-80.3114 4567.48,-60.007 4696,-36 4701.72,-34.932 4707.66,-33.7353 4713.59,-32.4845"/>
<polygon fill="black" stroke="black" points="4723.5,-30.3416 4714.68,-36.8524 4718.62,-31.3978 4713.73,-32.454 4713.73,-32.454 4713.73,-32.454 4718.62,-31.3978 4712.78,-28.0555 4723.5,-30.3416 4723.5,-30.3416"/>
</g>
<!-- criticReview&#45;&gt;videoId_fk -->
<g id="edge103" class="edge"><title>criticReview&#45;&gt;videoId_fk</title>
<path fill="none" stroke="black" d="M4340.5,-88.3991C4400.14,-79.0921 4509.02,-60.4786 4600,-36 4603.36,-35.0953 4606.83,-34.076 4610.29,-32.9974"/>
<polygon fill="black" stroke="black" points="4619.93,-29.8463 4611.82,-37.2292 4615.18,-31.399 4610.43,-32.9516 4610.43,-32.9516 4610.43,-32.9516 4615.18,-31.399 4609.03,-28.6741 4619.93,-29.8463 4619.93,-29.8463"/>
</g>
<!-- criticReviewText -->
<g id="node90" class="node"><title>criticReviewText</title>
<ellipse fill="none" stroke="black" cx="3943" cy="-18" rx="74.6146" ry="18"/>
<text text-anchor="middle" x="3943" y="-14.3" font-family="Helvetica,sans-Serif" font-size="14.00">criticReviewText</text>
</g>
<!-- criticReview&#45;&gt;criticReviewText -->
<g id="edge99" class="edge"><title>criticReview&#45;&gt;criticReviewText</title>
<path fill="none" stroke="black" d="M4251.65,-85.4515C4189.88,-72.152 4077.57,-47.9733 4006.81,-32.7379"/>
<polygon fill="black" stroke="black" points="3996.68,-30.5573 4007.4,-28.2629 4001.57,-31.6097 4006.46,-32.6621 4006.46,-32.6621 4006.46,-32.6621 4001.57,-31.6097 4005.51,-37.0613 3996.68,-30.5573 3996.68,-30.5573"/>
</g>
<!-- criticReviewAuthor -->
<g id="node91" class="node"><title>criticReviewAuthor</title>
<ellipse fill="none" stroke="black" cx="4119" cy="-18" rx="83.2892" ry="18"/>
<text text-anchor="middle" x="4119" y="-14.3" font-family="Helvetica,sans-Serif" font-size="14.00">criticReviewAuthor</text>
</g>
<!-- criticReview&#45;&gt;criticReviewAuthor -->
<g id="edge100" class="edge"><title>criticReview&#45;&gt;criticReviewAuthor</title>
<path fill="none" stroke="black" d="M4256.28,-77.9441C4228.9,-66.1876 4192.46,-50.5415 4164,-38.3236"/>
<polygon fill="black" stroke="black" points="4154.68,-34.3222 4165.65,-34.1328 4159.28,-36.295 4163.87,-38.2677 4163.87,-38.2677 4163.87,-38.2677 4159.28,-36.295 4162.1,-42.4027 4154.68,-34.3222 4154.68,-34.3222"/>
</g>
<!-- criticReviewDate -->
<g id="node92" class="node"><title>criticReviewDate</title>
<ellipse fill="none" stroke="black" cx="4296" cy="-18" rx="76.0649" ry="18"/>
<text text-anchor="middle" x="4296" y="-14.3" font-family="Helvetica,sans-Serif" font-size="14.00">criticReviewDate</text>
</g>
<!-- criticReview&#45;&gt;criticReviewDate -->
<g id="edge101" class="edge"><title>criticReview&#45;&gt;criticReviewDate</title>
<path fill="none" stroke="black" d="M4296,-77.7544C4296,-68.5232 4296,-56.9348 4296,-46.4946"/>
<polygon fill="black" stroke="black" points="4296,-36.1773 4300.5,-46.1773 4296,-41.1773 4296,-46.1773 4296,-46.1773 4296,-46.1773 4296,-41.1773 4291.5,-46.1774 4296,-36.1773 4296,-36.1773"/>
</g>
<!-- criticReviewPublication -->
<g id="node93" class="node"><title>criticReviewPublication</title>
<ellipse fill="none" stroke="black" cx="4491" cy="-18" rx="100.611" ry="18"/>
<text text-anchor="middle" x="4491" y="-14.3" font-family="Helvetica,sans-Serif" font-size="14.00">criticReviewPublication</text>
</g>
<!-- criticReview&#45;&gt;criticReviewPublication -->
<g id="edge102" class="edge"><title>criticReview&#45;&gt;criticReviewPublication</title>
<path fill="none" stroke="black" d="M4339.76,-77.9441C4369.99,-66.1647 4410.23,-50.4805 4441.6,-38.2523"/>
<polygon fill="black" stroke="black" points="4451.03,-34.5764 4443.35,-42.4007 4446.38,-36.3921 4441.72,-38.2079 4441.72,-38.2079 4441.72,-38.2079 4446.38,-36.3921 4440.08,-34.015 4451.03,-34.5764 4451.03,-34.5764"/>
</g>
<!-- profileQueue -->
<g id="node15" class="node"><title>profileQueue</title>
<polygon fill="none" stroke="black" points="137.269,-114 42.7306,-114 42.7306,-78 137.269,-78 137.269,-114"/>
<polygon fill="none" stroke="black" points="141.25,-118 38.75,-118 38.75,-74 141.25,-74 141.25,-118"/>
<text text-anchor="middle" x="90" y="-92.3" font-family="Helvetica,sans-Serif" font-size="14.00">profileQueue</text>
</g>
<!-- profileId_weak_pk -->
<g id="node37" class="node"><title>profileId_weak_pk</title>
<ellipse fill="none" stroke="black" cx="42" cy="-18" rx="42.3701" ry="18"/>
<text text-anchor="start" x="17.5" y="-15.3" font-family="Helvetica,sans-Serif" text-decoration="underline" font-size="14.00">profileId</text>
</g>
<!-- profileQueue&#45;&gt;profileId_weak_pk -->
<g id="edge104" class="edge"><title>profileQueue&#45;&gt;profileId_weak_pk</title>
<path fill="none" stroke="black" d="M76.6293,-73.8298C70.8274,-64.6433 63.9868,-53.8124 57.9244,-44.2136"/>
<polygon fill="black" stroke="black" points="52.4097,-35.4821 61.5544,-41.534 55.0797,-39.7095 57.7497,-43.937 57.7497,-43.937 57.7497,-43.937 55.0797,-39.7095 53.945,-46.34 52.4097,-35.4821 52.4097,-35.4821"/>
</g>
<!-- queueId_weak_pk -->
<g id="node38" class="node"><title>queueId_weak_pk</title>
<ellipse fill="none" stroke="black" cx="144" cy="-18" rx="42.3701" ry="18"/>
<text text-anchor="start" x="119.5" y="-15.3" font-family="Helvetica,sans-Serif" text-decoration="underline" font-size="14.00">queueId</text>
</g>
<!-- profileQueue&#45;&gt;queueId_weak_pk -->
<g id="edge105" class="edge"><title>profileQueue&#45;&gt;queueId_weak_pk</title>
<path fill="none" stroke="black" d="M105.042,-73.8298C111.637,-64.5486 119.424,-53.5889 126.296,-43.9172"/>
<polygon fill="black" stroke="black" points="132.289,-35.4821 130.165,-46.2404 129.393,-39.558 126.497,-43.6339 126.497,-43.6339 126.497,-43.6339 129.393,-39.558 122.829,-41.0275 132.289,-35.4821 132.289,-35.4821"/>
</g>
<!-- queueVideo -->
<g id="node16" class="node"><title>queueVideo</title>
<polygon fill="none" stroke="black" points="371.271,-114 282.729,-114 282.729,-78 371.271,-78 371.271,-114"/>
<polygon fill="none" stroke="black" points="375.25,-118 278.75,-118 278.75,-74 375.25,-74 375.25,-118"/>
<text text-anchor="middle" x="327" y="-92.3" font-family="Helvetica,sans-Serif" font-size="14.00">queueVideo</text>
</g>
<!-- queueVideo&#45;&gt;queueId_weak_pk -->
<g id="edge106" class="edge"><title>queueVideo&#45;&gt;queueId_weak_pk</title>
<path fill="none" stroke="black" d="M278.44,-74.8329C248.414,-62.363 210.409,-46.5796 182.473,-34.978"/>
<polygon fill="black" stroke="black" points="173.042,-31.0611 184.003,-30.7407 177.66,-32.9788 182.277,-34.8966 182.277,-34.8966 182.277,-34.8966 177.66,-32.9788 180.551,-39.0524 173.042,-31.0611 173.042,-31.0611"/>
</g>
<!-- videoId_weak_pk -->
<g id="node39" class="node"><title>videoId_weak_pk</title>
<ellipse fill="none" stroke="black" cx="342" cy="-18" rx="38.4949" ry="18"/>
<text text-anchor="start" x="320" y="-15.3" font-family="Helvetica,sans-Serif" text-decoration="underline" font-size="14.00">videoId</text>
</g>
<!-- queueVideo&#45;&gt;videoId_weak_pk -->
<g id="edge107" class="edge"><title>queueVideo&#45;&gt;videoId_weak_pk</title>
<path fill="none" stroke="black" d="M331.178,-73.8298C332.891,-65.1498 334.894,-55.0017 336.708,-45.812"/>
<polygon fill="black" stroke="black" points="338.65,-35.9731 341.128,-46.6552 337.682,-40.8785 336.714,-45.7838 336.714,-45.7838 336.714,-45.7838 337.682,-40.8785 332.299,-44.9125 338.65,-35.9731 338.65,-35.9731"/>
</g>
<!-- creativeVideo -->
<g id="node17" class="node"><title>creativeVideo</title>
<polygon fill="none" stroke="black" points="806.538,-114 709.462,-114 709.462,-78 806.538,-78 806.538,-114"/>
<polygon fill="none" stroke="black" points="810.5,-118 705.5,-118 705.5,-74 810.5,-74 810.5,-118"/>
<text text-anchor="middle" x="758" y="-92.3" font-family="Helvetica,sans-Serif" font-size="14.00">creativeVideo</text>
</g>
<!-- creativeVideo&#45;&gt;videoId_weak_pk -->
<g id="edge109" class="edge"><title>creativeVideo&#45;&gt;videoId_weak_pk</title>
<path fill="none" stroke="black" d="M705.444,-76.3886C702.267,-75.5162 699.102,-74.7101 696,-74 562.412,-43.4157 523.374,-67.5054 390,-36 386.774,-35.2379 383.462,-34.3342 380.161,-33.3469"/>
<polygon fill="black" stroke="black" points="370.377,-30.1917 381.276,-28.9784 375.136,-31.7264 379.895,-33.2611 379.895,-33.2611 379.895,-33.2611 375.136,-31.7264 378.513,-37.5439 370.377,-30.1917 370.377,-30.1917"/>
</g>
<!-- creativeId_weak_pk -->
<g id="node40" class="node"><title>creativeId_weak_pk</title>
<ellipse fill="none" stroke="black" cx="660" cy="-18" rx="48.6179" ry="18"/>
<text text-anchor="start" x="630.5" y="-15.3" font-family="Helvetica,sans-Serif" text-decoration="underline" font-size="14.00">creativeId</text>
</g>
<!-- creativeVideo&#45;&gt;creativeId_weak_pk -->
<g id="edge108" class="edge"><title>creativeVideo&#45;&gt;creativeId_weak_pk</title>
<path fill="none" stroke="black" d="M730.153,-73.8177C722.622,-68.0586 714.485,-61.808 707,-56 700.795,-51.1856 694.155,-45.9868 687.878,-41.0508"/>
<polygon fill="black" stroke="black" points="679.618,-34.5436 690.258,-37.1973 683.545,-37.6379 687.473,-40.7321 687.473,-40.7321 687.473,-40.7321 683.545,-37.6379 684.688,-44.2669 679.618,-34.5436 679.618,-34.5436"/>
</g>
<!-- creativeCharacter -->
<g id="node18" class="node"><title>creativeCharacter</title>
<polygon fill="none" stroke="black" points="956.265,-114 833.735,-114 833.735,-78 956.265,-78 956.265,-114"/>
<polygon fill="none" stroke="black" points="960.25,-118 829.75,-118 829.75,-74 960.25,-74 960.25,-118"/>
<text text-anchor="middle" x="895" y="-92.3" font-family="Helvetica,sans-Serif" font-size="14.00">creativeCharacter</text>
</g>
<!-- creativeCharacter&#45;&gt;creativeId_weak_pk -->
<g id="edge110" class="edge"><title>creativeCharacter&#45;&gt;creativeId_weak_pk</title>
<path fill="none" stroke="black" d="M829.851,-73.9307C790.12,-61.0814 740.35,-44.9856 704.979,-33.5464"/>
<polygon fill="black" stroke="black" points="695.404,-30.45 706.304,-29.2455 700.162,-31.9886 704.919,-33.5272 704.919,-33.5272 704.919,-33.5272 700.162,-31.9886 703.535,-37.8088 695.404,-30.45 695.404,-30.45"/>
</g>
<!-- characterId_weak_pk -->
<g id="node41" class="node"><title>characterId_weak_pk</title>
<ellipse fill="none" stroke="black" cx="781" cy="-18" rx="54.3924" ry="18"/>
<text text-anchor="start" x="747" y="-15.3" font-family="Helvetica,sans-Serif" text-decoration="underline" font-size="14.00">characterId</text>
</g>
<!-- creativeCharacter&#45;&gt;characterId_weak_pk -->
<g id="edge111" class="edge"><title>creativeCharacter&#45;&gt;characterId_weak_pk</title>
<path fill="none" stroke="black" d="M863.245,-73.8298C847.458,-63.3051 828.433,-50.6219 812.659,-40.1061"/>
<polygon fill="black" stroke="black" points="804.272,-34.5143 815.088,-36.3172 808.432,-37.2879 812.592,-40.0614 812.592,-40.0614 812.592,-40.0614 808.432,-37.2879 810.096,-43.8056 804.272,-34.5143 804.272,-34.5143"/>
</g>
<!-- videoGenre -->
<g id="node19" class="node"><title>videoGenre</title>
<polygon fill="none" stroke="black" points="484.271,-114 397.729,-114 397.729,-78 484.271,-78 484.271,-114"/>
<polygon fill="none" stroke="black" points="488.25,-118 393.75,-118 393.75,-74 488.25,-74 488.25,-118"/>
<text text-anchor="middle" x="441" y="-92.3" font-family="Helvetica,sans-Serif" font-size="14.00">videoGenre</text>
</g>
<!-- videoGenre&#45;&gt;videoId_weak_pk -->
<g id="edge112" class="edge"><title>videoGenre&#45;&gt;videoId_weak_pk</title>
<path fill="none" stroke="black" d="M413.423,-73.8298C399.683,-63.2818 383.118,-50.5657 369.402,-40.0361"/>
<polygon fill="black" stroke="black" points="361.281,-33.8015 371.953,-36.3214 365.247,-36.8462 369.213,-39.8909 369.213,-39.8909 369.213,-39.8909 365.247,-36.8462 366.473,-43.4604 361.281,-33.8015 361.281,-33.8015"/>
</g>
<!-- genreId_weak_pk -->
<g id="node42" class="node"><title>genreId_weak_pk</title>
<ellipse fill="none" stroke="black" cx="245" cy="-18" rx="39.9464" ry="18"/>
<text text-anchor="start" x="222" y="-15.3" font-family="Helvetica,sans-Serif" text-decoration="underline" font-size="14.00">genreId</text>
</g>
<!-- videoGenre&#45;&gt;genreId_weak_pk -->
<g id="edge113" class="edge"><title>videoGenre&#45;&gt;genreId_weak_pk</title>
<path fill="none" stroke="black" d="M393.554,-76.6025C359.877,-63.5442 315.232,-46.233 283.706,-34.0084"/>
<polygon fill="black" stroke="black" points="274.37,-30.3882 285.32,-29.808 279.031,-32.1959 283.693,-34.0036 283.693,-34.0036 283.693,-34.0036 279.031,-32.1959 282.066,-38.1992 274.37,-30.3882 274.37,-30.3882"/>
</g>
<!-- queueGenre -->
<g id="node20" class="node"><title>queueGenre</title>
<polygon fill="none" stroke="black" points="256,-114 164,-114 164,-78 256,-78 256,-114"/>
<polygon fill="none" stroke="black" points="260,-118 160,-118 160,-74 260,-74 260,-118"/>
<text text-anchor="middle" x="210" y="-92.3" font-family="Helvetica,sans-Serif" font-size="14.00">queueGenre</text>
</g>
<!-- queueGenre&#45;&gt;queueId_weak_pk -->
<g id="edge114" class="edge"><title>queueGenre&#45;&gt;queueId_weak_pk</title>
<path fill="none" stroke="black" d="M191.615,-73.8298C183.188,-64.1259 173.168,-52.587 164.498,-42.6038"/>
<polygon fill="black" stroke="black" points="157.891,-34.9958 167.846,-39.5955 161.17,-38.771 164.448,-42.5462 164.448,-42.5462 164.448,-42.5462 161.17,-38.771 161.05,-45.4968 157.891,-34.9958 157.891,-34.9958"/>
</g>
<!-- queueGenre&#45;&gt;genreId_weak_pk -->
<g id="edge115" class="edge"><title>queueGenre&#45;&gt;genreId_weak_pk</title>
<path fill="none" stroke="black" d="M219.749,-73.8298C223.833,-64.9631 228.622,-54.5645 232.925,-45.2205"/>
<polygon fill="black" stroke="black" points="237.183,-35.9731 237.088,-46.9386 235.092,-40.5147 233,-45.0562 233,-45.0562 233,-45.0562 235.092,-40.5147 228.913,-43.1738 237.183,-35.9731 237.183,-35.9731"/>
</g>
<!-- videoProductionCompany -->
<g id="node21" class="node"><title>videoProductionCompany</title>
<polygon fill="none" stroke="black" points="683,-114 511,-114 511,-78 683,-78 683,-114"/>
<polygon fill="none" stroke="black" points="687,-118 507,-118 507,-74 687,-74 687,-118"/>
<text text-anchor="middle" x="597" y="-92.3" font-family="Helvetica,sans-Serif" font-size="14.00">videoProductionCompany</text>
</g>
<!-- videoProductionCompany&#45;&gt;videoId_weak_pk -->
<g id="edge116" class="edge"><title>videoProductionCompany&#45;&gt;videoId_weak_pk</title>
<path fill="none" stroke="black" d="M516.877,-73.9306C478.282,-63.3326 431.479,-49.8211 390,-36 387.116,-35.0389 384.14,-34.0292 381.15,-33.0014"/>
<polygon fill="black" stroke="black" points="371.642,-29.6938 382.565,-28.7295 376.364,-31.3367 381.087,-32.9796 381.087,-32.9796 381.087,-32.9796 376.364,-31.3367 379.608,-37.2298 371.642,-29.6938 371.642,-29.6938"/>
</g>
<!-- productionCompanyId_weak_pk -->
<g id="node43" class="node"><title>productionCompanyId_weak_pk</title>
<ellipse fill="none" stroke="black" cx="496" cy="-18" rx="96.2631" ry="18"/>
<text text-anchor="start" x="429.5" y="-15.3" font-family="Helvetica,sans-Serif" text-decoration="underline" font-size="14.00">productionCompanyId</text>
</g>
<!-- videoProductionCompany&#45;&gt;productionCompanyId_weak_pk -->
<g id="edge117" class="edge"><title>videoProductionCompany&#45;&gt;productionCompanyId_weak_pk</title>
<path fill="none" stroke="black" d="M568.866,-73.8298C555.622,-63.8637 539.805,-51.9622 526.298,-41.7982"/>
<polygon fill="black" stroke="black" points="518.229,-35.727 528.926,-38.144 522.225,-38.7334 526.22,-41.7397 526.22,-41.7397 526.22,-41.7397 522.225,-38.7334 523.514,-45.3354 518.229,-35.727 518.229,-35.727"/>
</g>
<!-- has&#45;&gt;video -->
<g id="edge10" class="edge"><title>has&#45;&gt;video</title>
<path fill="none" stroke="black" d="M1469.18,-172.983C1465.56,-161.825 1462.97,-146.405 1471,-136 1484.57,-118.416 1543.29,-107.228 1582.84,-101.542"/>
<polygon fill="black" stroke="black" points="1592.93,-100.148 1583.64,-105.973 1587.98,-100.832 1583.03,-101.516 1583.03,-101.516 1583.03,-101.516 1587.98,-100.832 1582.41,-97.0578 1592.93,-100.148 1592.93,-100.148"/>
<text text-anchor="middle" x="1475" y="-140.3" font-family="Helvetica,sans-Serif" font-size="14.00">n</text>
</g>
<!-- has&#45;&gt;episode -->
<g id="edge4" class="edge"><title>has&#45;&gt;episode</title>
<path fill="none" stroke="black" d="M1501.63,-183.764C1535.9,-179.75 1597.28,-173.064 1650,-170 1799.72,-161.299 4199.07,-121.483 4349,-118 4627.16,-111.537 4961.65,-101.753 5078.36,-98.2787"/>
<polygon fill="black" stroke="black" points="5088.64,-97.9721 5078.78,-102.768 5083.64,-98.1211 5078.65,-98.2702 5078.65,-98.2702 5078.65,-98.2702 5083.64,-98.1211 5078.51,-93.7722 5088.64,-97.9721 5088.64,-97.9721"/>
<text text-anchor="middle" x="3307" y="-140.3" font-family="Helvetica,sans-Serif" font-size="14.00">n</text>
</g>
<!-- has&#45;&gt;streamLink -->
<g id="edge6" class="edge"><title>has&#45;&gt;streamLink</title>
<path fill="none" stroke="black" d="M1500.3,-183.169C1530.93,-178.08 1583.78,-167.846 1627,-152 1641.56,-146.663 1642.97,-139.813 1658,-136 1749.86,-112.691 3209.11,-99.782 3504.21,-97.4029"/>
<polygon fill="black" stroke="black" points="3514.61,-97.3196 3504.65,-101.9 3509.61,-97.3597 3504.61,-97.3998 3504.61,-97.3998 3504.61,-97.3998 3509.61,-97.3597 3504.58,-92.9 3514.61,-97.3196 3514.61,-97.3196"/>
<text text-anchor="middle" x="1662" y="-140.3" font-family="Helvetica,sans-Serif" font-size="14.00">n</text>
</g>
<!-- has&#45;&gt;criticReview -->
<g id="edge8" class="edge"><title>has&#45;&gt;criticReview</title>
<path fill="none" stroke="black" d="M1501.64,-183.825C1535.9,-179.875 1597.29,-173.257 1650,-170 2517.99,-116.37 2736.71,-142.783 3606,-118 3842.65,-111.253 4124.92,-102.415 4241.51,-98.7298"/>
<polygon fill="black" stroke="black" points="4251.6,-98.4104 4241.75,-103.224 4246.61,-98.5685 4241.61,-98.7266 4241.61,-98.7266 4241.61,-98.7266 4246.61,-98.5685 4241.47,-94.2289 4251.6,-98.4104 4251.6,-98.4104"/>
<text text-anchor="middle" x="2433" y="-140.3" font-family="Helvetica,sans-Serif" font-size="14.00">n</text>
</g>
<!-- has&#45;&gt;profileQueue -->
<g id="edge12" class="edge"><title>has&#45;&gt;profileQueue</title>
<path fill="none" stroke="black" d="M1448.15,-184.032C1411.23,-180.082 1342.67,-173.223 1284,-170 903.157,-149.081 806.429,-179.436 426,-152 306.405,-143.375 272.746,-145.621 151.418,-117.849"/>
<polygon fill="black" stroke="black" points="141.364,-115.526 152.121,-113.393 146.236,-116.652 151.108,-117.778 151.108,-117.778 151.108,-117.778 146.236,-116.652 150.095,-122.162 141.364,-115.526 141.364,-115.526"/>
<text text-anchor="middle" x="430" y="-140.3" font-family="Helvetica,sans-Serif" font-size="14.00">n</text>
</g>
<!-- has&#45;&gt;queueVideo -->
<g id="edge16" class="edge"><title>has&#45;&gt;queueVideo</title>
<path fill="none" stroke="black" d="M1447.84,-184.039C1410.84,-180.129 1342.5,-173.35 1284,-170 972.408,-152.156 892.61,-182.49 582,-152 561.607,-149.998 429.977,-127.884 385.121,-117.859"/>
<polygon fill="black" stroke="black" points="375.316,-115.484 386.094,-113.465 380.175,-116.662 385.035,-117.839 385.035,-117.839 385.035,-117.839 380.175,-116.662 383.975,-122.212 375.316,-115.484 375.316,-115.484"/>
<text text-anchor="middle" x="586" y="-140.3" font-family="Helvetica,sans-Serif" font-size="14.00">n</text>
</g>
<!-- has&#45;&gt;creativeVideo -->
<g id="edge20" class="edge"><title>has&#45;&gt;creativeVideo</title>
<path fill="none" stroke="black" d="M1456.74,-179.402C1441.31,-172.766 1418.79,-162.565 1400,-152 1388.83,-145.716 1388.21,-139.913 1376,-136 1261.15,-99.1883 956.977,-138.074 820.736,-117.678"/>
<polygon fill="black" stroke="black" points="810.829,-116.034 821.431,-113.232 815.761,-116.852 820.694,-117.671 820.694,-117.671 820.694,-117.671 815.761,-116.852 819.957,-122.111 810.829,-116.034 810.829,-116.034"/>
<text text-anchor="middle" x="1404" y="-140.3" font-family="Helvetica,sans-Serif" font-size="14.00">n</text>
</g>
<!-- has&#45;&gt;creativeCharacter -->
<g id="edge24" class="edge"><title>has&#45;&gt;creativeCharacter</title>
<path fill="none" stroke="black" d="M1463.74,-175.275C1451.19,-163.054 1429.65,-144.52 1407,-136 1329.19,-106.733 1093,-99.4104 970.502,-97.5914"/>
<polygon fill="black" stroke="black" points="960.446,-97.4507 970.508,-93.0912 965.446,-97.5207 970.445,-97.5907 970.445,-97.5907 970.445,-97.5907 965.446,-97.5207 970.382,-102.09 960.446,-97.4507 960.446,-97.4507"/>
<text text-anchor="middle" x="1440" y="-140.3" font-family="Helvetica,sans-Serif" font-size="14.00">n</text>
</g>
<!-- has&#45;&gt;videoGenre -->
<g id="edge28" class="edge"><title>has&#45;&gt;videoGenre</title>
<path fill="none" stroke="black" d="M1447.5,-184.355C1410.4,-180.831 1342.25,-174.519 1284,-170 934.952,-142.924 840.44,-190.819 498,-118 497.9,-117.979 497.8,-117.957 497.7,-117.936"/>
<polygon fill="black" stroke="black" points="488.284,-115.575 499.079,-113.642 493.134,-116.791 497.984,-118.007 497.984,-118.007 497.984,-118.007 493.134,-116.791 496.89,-122.372 488.284,-115.575 488.284,-115.575"/>
<text text-anchor="middle" x="698" y="-140.3" font-family="Helvetica,sans-Serif" font-size="14.00">n</text>
</g>
<!-- has&#45;&gt;queueGenre -->
<g id="edge32" class="edge"><title>has&#45;&gt;queueGenre</title>
<path fill="none" stroke="black" d="M1448.15,-184.042C1411.23,-180.104 1342.67,-173.257 1284,-170 1193.78,-164.992 559.069,-172.199 471,-152 454.329,-148.176 452.493,-140.53 436,-136 367.107,-117.076 343.779,-133.119 270.483,-118.008"/>
<polygon fill="black" stroke="black" points="260.3,-115.779 271.031,-113.522 265.184,-116.848 270.068,-117.918 270.068,-117.918 270.068,-117.918 265.184,-116.848 269.106,-122.313 260.3,-115.779 260.3,-115.779"/>
<text text-anchor="middle" x="475" y="-140.3" font-family="Helvetica,sans-Serif" font-size="14.00">n</text>
</g>
<!-- has&#45;&gt;videoProductionCompany -->
<g id="edge36" class="edge"><title>has&#45;&gt;videoProductionCompany</title>
<path fill="none" stroke="black" d="M1452.81,-181.547C1430.88,-175.731 1396.7,-165.499 1369,-152 1357.48,-146.384 1357.22,-139.885 1345,-136 1278.67,-114.909 802.853,-125.691 697.287,-117.791"/>
<polygon fill="black" stroke="black" points="687.26,-116.851 697.637,-113.304 692.239,-117.318 697.217,-117.784 697.217,-117.784 697.217,-117.784 692.239,-117.318 696.796,-122.265 687.26,-116.851 687.26,-116.851"/>
<text text-anchor="middle" x="1373" y="-140.3" font-family="Helvetica,sans-Serif" font-size="14.00">n</text>
</g>
<!-- is&#45;&gt;profile -->
<g id="edge2" class="edge"><title>is&#45;&gt;profile</title>
<path fill="none" stroke="black" d="M1359.07,-355.052C1352.56,-351.704 1344.59,-348.103 1337,-346 1259.09,-324.425 1227.74,-365.262 1156,-328 1144.76,-322.164 1135.16,-312.14 1127.82,-302.516"/>
<polygon fill="black" stroke="black" points="1121.97,-294.276 1131.43,-299.823 1124.86,-298.353 1127.76,-302.429 1127.76,-302.429 1127.76,-302.429 1124.86,-298.353 1124.09,-305.035 1121.97,-294.276 1121.97,-294.276"/>
<text text-anchor="middle" x="1160" y="-316.3" font-family="Helvetica,sans-Serif" font-size="14.00">1</text>
</g>
<!-- is&#45;&gt;profileQueue -->
<g id="edge14" class="edge"><title>is&#45;&gt;profileQueue</title>
<path fill="none" stroke="black" d="M1359.48,-354.963C1352.93,-351.508 1344.8,-347.844 1337,-346 1167.84,-306.017 726.529,-356.154 555,-328 504.924,-319.781 492.663,-313.944 446,-294 327.201,-243.226 196.44,-164.448 131.447,-123.597"/>
<polygon fill="black" stroke="black" points="122.721,-118.091 133.58,-119.621 126.95,-120.759 131.178,-123.427 131.178,-123.427 131.178,-123.427 126.95,-120.759 128.777,-127.233 122.721,-118.091 122.721,-118.091"/>
<text text-anchor="middle" x="334" y="-228.3" font-family="Helvetica,sans-Serif" font-size="14.00">n</text>
</g>
<!-- is&#45;&gt;queueVideo -->
<g id="edge18" class="edge"><title>is&#45;&gt;queueVideo</title>
<path fill="none" stroke="black" d="M1359.47,-354.977C1352.92,-351.525 1344.8,-347.86 1337,-346 1192.98,-311.656 813.912,-366.678 671,-328 536.701,-291.653 408.984,-178.381 354.555,-125.16"/>
<polygon fill="black" stroke="black" points="347.369,-118.063 357.646,-121.888 350.926,-121.576 354.484,-125.09 354.484,-125.09 354.484,-125.09 350.926,-121.576 351.322,-128.292 347.369,-118.063 347.369,-118.063"/>
<text text-anchor="middle" x="495" y="-228.3" font-family="Helvetica,sans-Serif" font-size="14.00">n</text>
</g>
<!-- is&#45;&gt;creativeVideo -->
<g id="edge22" class="edge"><title>is&#45;&gt;creativeVideo</title>
<path fill="none" stroke="black" d="M1359.46,-355.024C1352.91,-351.582 1344.79,-347.912 1337,-346 1206.17,-313.872 846.277,-366.92 733,-294 682.75,-261.653 657.397,-224.902 681,-170 688.673,-152.151 703.094,-136.619 717.399,-124.524"/>
<polygon fill="black" stroke="black" points="725.291,-118.165 720.327,-127.943 721.398,-121.302 717.504,-124.439 717.504,-124.439 717.504,-124.439 721.398,-121.302 714.681,-120.935 725.291,-118.165 725.291,-118.165"/>
<text text-anchor="middle" x="683" y="-228.3" font-family="Helvetica,sans-Serif" font-size="14.00">n</text>
</g>
<!-- is&#45;&gt;creativeCharacter -->
<g id="edge26" class="edge"><title>is&#45;&gt;creativeCharacter</title>
<path fill="none" stroke="black" d="M1359.11,-354.888C1352.62,-351.507 1344.64,-347.926 1337,-346 1189.4,-308.803 1143.64,-360.788 995,-328 852.833,-296.639 772.551,-326.601 691,-206 682.037,-192.746 681.787,-183.082 691,-170 698.956,-158.703 764.978,-136.327 819.793,-119.311"/>
<polygon fill="black" stroke="black" points="829.53,-116.307 821.301,-123.555 824.752,-117.781 819.974,-119.255 819.974,-119.255 819.974,-119.255 824.752,-117.781 818.648,-114.955 829.53,-116.307 829.53,-116.307"/>
<text text-anchor="middle" x="722" y="-228.3" font-family="Helvetica,sans-Serif" font-size="14.00">n</text>
</g>
<!-- is&#45;&gt;videoGenre -->
<g id="edge30" class="edge"><title>is&#45;&gt;videoGenre</title>
<path fill="none" stroke="black" d="M1359.47,-354.982C1352.92,-351.531 1344.8,-347.866 1337,-346 1200.79,-313.406 840.643,-369.9 707,-328 625.705,-302.512 532.061,-153.527 510,-136 504.371,-131.528 498.165,-127.256 491.852,-123.29"/>
<polygon fill="black" stroke="black" points="483.223,-118.081 494.109,-119.396 487.503,-120.665 491.784,-123.249 491.784,-123.249 491.784,-123.249 487.503,-120.665 489.458,-127.101 483.223,-118.081 483.223,-118.081"/>
<text text-anchor="middle" x="599" y="-228.3" font-family="Helvetica,sans-Serif" font-size="14.00">n</text>
</g>
<!-- is&#45;&gt;queueGenre -->
<g id="edge34" class="edge"><title>is&#45;&gt;queueGenre</title>
<path fill="none" stroke="black" d="M1359.48,-354.971C1352.92,-351.517 1344.8,-347.853 1337,-346 1182.58,-309.323 779.451,-354.724 623,-328 574.648,-319.741 562.357,-314.942 518,-294 413.175,-244.51 301.166,-165.375 245.569,-124.077"/>
<polygon fill="black" stroke="black" points="237.461,-118.026 248.167,-120.401 241.468,-121.016 245.475,-124.007 245.475,-124.007 245.475,-124.007 241.468,-121.016 242.783,-127.613 237.461,-118.026 237.461,-118.026"/>
<text text-anchor="middle" x="421" y="-228.3" font-family="Helvetica,sans-Serif" font-size="14.00">n</text>
</g>
<!-- is&#45;&gt;videoProductionCompany -->
<g id="edge38" class="edge"><title>is&#45;&gt;videoProductionCompany</title>
<path fill="none" stroke="black" d="M1359.47,-354.993C1352.92,-351.545 1344.79,-347.878 1337,-346 1214.44,-316.468 893.287,-354.311 770,-328 731.014,-319.68 715.812,-321.55 687,-294 638.669,-247.787 614.055,-170.713 603.53,-127.956"/>
<polygon fill="black" stroke="black" points="601.209,-118.116 607.885,-126.816 602.357,-122.983 603.505,-127.849 603.505,-127.849 603.505,-127.849 602.357,-122.983 599.125,-128.882 601.209,-118.116 601.209,-118.116"/>
<text text-anchor="middle" x="650" y="-228.3" font-family="Helvetica,sans-Serif" font-size="14.00">n</text>
</g>
</g>
</svg>
